<?xml version="1.0" encoding="utf-8"?>
<!-- Generator: Adobe Illustrator 19.0.0, SVG Export Plug-In . SVG Version: 6.00 Build 0)  -->
<svg version="1.1" id="Layer_1" xmlns="http://www.w3.org/2000/svg" xmlns:xlink="http://www.w3.org/1999/xlink" x="0px" y="0px"
	 viewBox="-185 288.7 239.1 229" style="enable-background:new -185 288.7 239.1 229;" xml:space="preserve">
<style type="text/css">
	.st0{fill:#FFFFFF;}
	.st1{fill:#DA6026;}
</style>
<g>
	<path id="CV" class="st0" d="M-177.4,353.3l-0.3,0.1h-0.1v-0.2l-0.1-0.2v-0.1l0.6-0.3l0.2,0.1l0.2,0.2l-0.1,0.1L-177.4,353.3
		L-177.4,353.3z M-176.6,353.7l-0.2,0.1h-0.1l-0.2-0.1l0.1-0.1l0.2-0.1h0.2V353.7L-176.6,353.7L-176.6,353.7z M-171,354.2l-0.1,0.1
		l-0.1-0.2l-0.1-0.1v-0.3l0.2-0.1h0.1v0.3L-171,354.2L-171,354.2z M-174.4,354.3l0.1,0.1v0.1h-0.2l-0.4-0.1l-0.1,0.1l-0.1,0.2
		l-0.2-0.4v-0.1l0,0l0.3,0.1L-174.4,354.3L-174.4,354.3z M-171.1,355.4l0.2,0.1h0.1h0.1l0.2,0.2v0.2l-0.1,0.2l-0.3,0.2h-0.2
		l-0.2-0.2l0.1-0.3L-171.1,355.4L-171.1,355.4z M-172.6,359l-0.2,0.3h-0.4l-0.2-0.1l-0.2-0.3v-0.3l0.1-0.2v-0.2v-0.1h0.1v0.1
		l0.3,0.3l0.1,0.1L-172.6,359L-172.6,359z M-171.8,358.6L-171.8,358.6l-0.2-0.1v-0.2l0,0l0.1-0.2h0.2l0.1,0.1v0.3L-171.8,358.6
		L-171.8,358.6z M-175,359.4l-0.2,0.1h-0.2l-0.1-0.1l-0.1-0.2l0.1-0.1l0.3-0.2l0.2,0.1l0.1,0.3L-175,359.4L-175,359.4z"/>
	<path id="GO" class="st0" d="M26,434.2L26,434.2L26,434.2L26,434.2L26,434.2L26,434.2z"/>
	<path id="MG" class="st0" d="M32.2,436.7l0.1,0.3l0.1,0.3l0.5,0.7l0.2,0.3l0.2,0.3l0.1,0.6l0.3,0.9l0.3,1.3l0.1,1.3l0.1,0.6
		l0.2,0.6l0.4,0.6l0.1,0.7l-0.2,0.7l-0.3,0.7l-0.1,0.1l-0.1,0.2h-0.1l-0.3-0.2l-0.2-0.3l-0.3-0.7l-0.1-0.3l-0.1-0.1h-0.3l-0.2,0.2
		v0.1v0.4l0.1,0.3v0.3v0.4l0.1,0.1l0.1,0.1l0.2,0.5v0.7l-0.1,0.3l-0.2,0.3v0.2l0.1,0.2l-0.1,0.1l-0.3,0.1l-0.1,0.1l-0.2,0.3
		l-0.3,0.6v0.3l0.2,0.9v0.7l-0.3,1.3l-0.2,0.6l-0.3,0.7l-0.4,1l-0.4,1.2l-0.3,1.3l-0.3,0.8l-0.3,0.7l-0.4,1.3l-0.3,1.3l-0.5,1.5
		l-0.7,1.7l-0.1,0.2l-0.1,0.9l-0.2,0.7l-0.2,0.7l-0.4,1.2v0.4l-0.1,0.4l-0.4,0.8l-0.2,0.3l-0.1,0.3l-0.1,0.4l-0.1,0.4l-0.3,0.7
		l-0.4,0.6l-0.3,0.2l-0.6,0.3l-0.3,0.1h-0.7l-0.6,0.2l-0.7,0.3l-0.6,0.4l-0.2,0.2l-0.3,0.1h-0.8l-0.3-0.1l-0.8-0.6l-0.3-0.1
		l-0.6-0.1l-0.2-0.1l-0.2-0.1l-0.3-0.3l-0.5-0.3l-0.1-0.1l0.1-0.2l-0.1-0.2l-0.1-0.2l-0.1-0.5l-0.2-0.3l-0.5-0.6v-0.2v-0.6v-0.4V470
		l0.1-0.3l0.2-0.3l-0.1-0.3l-0.2-0.3l-0.1-0.4l-0.1-0.3l-0.5-0.6l-0.1-0.3l-0.1-0.3l-0.2-0.9v-0.3V465l0.1-0.4l0.1-0.2v-0.2l0.1-0.2
		l0.1-0.1l0.1-0.2l0.2-0.9l0.2-0.2l0.3-0.1l0.3-0.2l0.2-0.3l0.2-0.6l0.4-0.6l0.2-0.3l0.3-0.5l0.3-0.7l0.1-0.3l0.1-0.3L18,458
		l0.1-0.4v-0.4l-0.2-0.4l-0.4-0.7V456v-0.5v-0.4l-0.2-0.4l-0.2-0.3l-0.3-0.7l-0.1-1v-0.4l-0.1-0.3l-0.1-0.3l0.1-0.6l1.2-2v-0.2
		l-0.1-0.6v-0.4v-0.1l0.1-0.1H18l1-0.1l0.1-0.1l0.3-0.2l0.3-0.3l0.2-0.1H20l0.1,0.1l0.1,0.1l0.4-0.1h0.2H21l0.1-0.1v-0.2l0.1-0.1
		l0.1-0.1h0.5l0.3-0.1l0.4-0.1h0.1l0.3,0.5H23h0.1l0.1-0.1l-0.3-0.2v-0.1v-0.2l0.2-0.3l0.3-0.3l0.6-0.4l0.6-0.4h0.2l0.1,0.1l0.1,0.5
		v0.1h0.1l0.1-0.1l0.1-0.2V445l-0.1-0.2v-0.1v-0.1l0.3-0.3l0.2-0.3l0.1-0.4l0.1-0.2l0.2-0.2h0.1l0.1,0.1v0.2l-0.1,0.2l-0.1,0.2v0.2
		h0.1h0.1l0.2-0.4l0.2-0.4l0.1-0.2L27,443h0.3l0.3,0.1l-0.4-0.4l-0.1-0.5l0.5-0.9v-0.2l0.1-0.1v-0.1l-0.3-0.3l-0.1-0.1v-0.2l0.1-0.2
		l0.1-0.1l0.2-0.1l0.1,0.1l0.3,0.2h0.2l0.2-0.2l0.2-0.3l0.3-0.2l0.3-0.1l0.5-0.5l0.3-1v-0.3l-0.1-0.3l-0.1-0.3l-0.2-0.4v-0.1
		l0.3,0.1l0.1-0.1l0.3-0.4l0.5-0.7h0.2l0.1,0.1l0.1,0.2l0.1,0.1l0.3,0.3L32.2,436.7L32.2,436.7z M28.9,439.3v0.1h-0.4l-0.1-0.4h0.2
		v-0.1h0.1l0.1,0.3L28.9,439.3L28.9,439.3z M33.4,449.6l-0.3,0.5v-0.4l0.4-0.6h0.1L33.4,449.6L33.4,449.6z"/>
	<path id="MU" class="st0" d="M55,460.2l-0.4,0.1h-0.4l-0.2-0.2V460l0.1-0.1v-0.2l0.1-0.3l0.1-0.1l0.2-0.1l0.1-0.3l0.2-0.2H55
		l0.2,0.3l0.2,0.3v0.3l-0.2,0.1l-0.1,0.2L55,460.2z"/>
	<path id="RE" class="st0" d="M49.8,462.8l-0.4,0.1h-0.3l-0.5-0.3l-0.1-0.2l-0.2-0.5v-0.2l0.2-0.3l0.4-0.1h0.4l0.2,0.1l0.2,0.3
		l0.3,0.4v0.4L49.8,462.8z"/>
	<path id="SC" class="st0" d="M49.1,414.7v0.3l-0.1-0.1L49.1,414.7l-0.3-0.1l-0.1-0.1l0.2-0.1L49.1,414.7z"/>
	<path id="YT" class="st0" d="M20,438.2h-0.2l-0.1-0.1l-0.1-0.2l0.1-0.2v-0.1l-0.1-0.2l0.1-0.1l0.1,0.2h0.1l0.2,0.1l-0.1,0.2v0.1
		l-0.1,0.2L20,438.2z"/>
	<g>
		<polygon class="st0" points="5.8,356.1 5.7,355.9 5.7,355.9 5.6,355.8 5.6,355.9 5.5,356 5.5,356 		"/>
		<polygon class="st0" points="5.7,357 5.7,357.1 5.5,357.1 5.3,357 5.4,357.2 5.7,357.3 6,357.3 6.3,357.3 6.6,357.3 6.6,357.2 
			6.2,357 6.1,357.1 6.1,357.1 6,357.1 5.9,357 5.9,357 5.9,356.7 5.8,356.6 5.6,356.5 5.4,356.4 5.5,356.6 5.4,356.7 5.3,356.7 
			5.3,356.8 5.5,356.9 		"/>
		<polygon class="st0" points="-121.8,292.8 -121.8,292.7 -121.8,292.7 -121.7,292.6 -121.8,292.6 -121.8,292.7 -121.8,292.7 
			-121.8,292.7 		"/>
		<polygon class="st0" points="-82.2,392.3 -82.1,392 -81.7,391.4 -81.7,391.1 -81.8,391 -82.2,391 -82.3,391 -82.3,391 
			-82.4,391.1 -82.5,391.2 -82.6,391.5 -82.7,391.8 -82.8,391.8 -83,391.9 -83.1,391.9 -83.1,392.2 -83.1,392.3 -83,392.4 
			-82.5,392.5 -82.4,392.5 		"/>
		<polygon class="st0" points="-151.4,370.1 -151.5,370 -151.5,370 -151.6,370.2 -151.5,370.3 -151.6,370.4 -151.4,370.4 
			-151.4,370.3 -151.4,370.3 		"/>
		<polygon class="st0" points="-150.9,369.7 -151,369.8 -151.1,370 -151,370 -150.9,370 -150.9,369.9 -150.8,369.9 -150.7,369.8 
			-150.7,369.7 -150.8,369.7 		"/>
		<polygon class="st0" points="-151.4,369.2 -151.4,368.8 -151.6,368.8 -151.7,369 -151.7,369.2 -151.7,369.2 -151.5,369.3 		"/>
		<polygon class="st0" points="-151.9,370 -152,370 -152.1,370 -152.2,370.1 -152.2,370.1 -152.3,370.2 -152.3,370.3 -152.2,370.4 
			-152,370.4 -152,370.4 -151.9,370.3 -151.8,370.2 		"/>
		<polygon class="st0" points="-151.6,368 -151.7,368 -152.1,368 -152.1,368.1 -152,368.3 -151.8,368.3 		"/>
		<polygon class="st0" points="-150.6,369 -150.5,369.1 -150.4,369 -150.4,369 -150.4,368.9 -150.2,368.9 -150.2,368.7 
			-150.4,368.8 		"/>
		<polygon class="st0" points="13.1,450.1 13.2,450.1 13.2,450.1 13.2,450.1 13.2,450.1 13.2,450.1 		"/>
		<polygon class="st0" points="8.5,407.2 8.2,407.5 8.2,407.6 8.3,407.6 8.3,407.6 8.6,407.4 8.7,407.4 8.7,407.3 8.7,407.3 		"/>
		<polygon class="st0" points="18,435.6 18,435.6 17.9,435.7 17.8,435.8 17.8,435.9 17.6,435.9 17.5,435.9 17.3,435.9 17.8,436.1 
			18,436.4 18.1,436.4 18.2,436.3 18.2,436 		"/>
		<polygon class="st0" points="15,434.3 15,433.7 14.9,433.6 14.7,433.6 14.7,433.7 14.6,433.8 14.5,434.7 14.8,435 14.9,435 
			15.2,435.2 15.2,435.1 15.2,435.1 15.3,435 15.2,434.7 		"/>
		<polygon class="st0" points="16.1,436.3 15.9,436.1 15.7,436.1 15.7,436.2 15.8,436.4 16.3,436.5 		"/>
		<polygon class="st0" points="-152.6,344.7 -152.8,344.8 -152.9,344.9 -153,345.2 -153,345.4 -152.9,345.5 -152.7,345.2 
			-152.7,345.2 		"/>
		<polygon class="st0" points="-86.5,388.8 -86.7,389.2 -86.6,389.2 -86.3,389.1 -86.3,389.1 -86.2,388.9 -86.4,388.9 		"/>
		<polygon class="st0" points="-147.1,423.7 -147.1,423.7 -147.2,423.8 -147.2,423.9 -147.2,423.9 -147.2,424 -147.1,424 
			-147.1,424 -147,423.9 -146.9,423.8 -147,423.8 		"/>
		<polygon class="st0" points="-122.8,446.7 -123,446.8 -123,447 -122.8,447 -122.7,446.9 -122.7,446.7 		"/>
		<polygon class="st0" points="-142,380.2 -142.2,380.1 -142.9,380.1 -143.1,380.3 -142.2,380.5 -142,380.7 -141.9,380.6 
			-141.9,380.4 -141.9,380.2 		"/>
		<path class="st0" d="M37.4,372l-0.2-0.1l-0.3-0.2v0.1v0.1l-0.4,0.1h-0.1l0.1-0.1h0.1v-0.1l0.1-0.2v-0.2l-0.1-1.2l-0.1-0.7l0.1-0.5
			l0.2-0.4v-0.3l0.1-0.2h-0.2l-1.1-0.4l-0.4,0.1l-0.3,0.3l-0.2,0.3l-1,0.6l-1.3,0.2l-0.7,0.3l-0.9,0.2h-0.3h-0.1l-0.6-0.2h-0.3
			l-0.4,0.1l-1.2,0.4l-0.9,0.1l-0.7-0.2h-0.2l-0.5,0.2l-0.5,0.6l-1.1,0.5h-0.3l-0.6-0.1h-0.6l-0.6-0.1l-0.3,0.1l-1,0.4l-1.1,0.6
			h-1.6l-0.3-0.1l-0.3-0.2l-0.9-0.7l-0.6-0.7l-0.7-0.9l-0.5-0.4l-0.2,0.4l-0.3,0.5l-0.4,0.6l0,0h-0.2h-0.2l-0.1-0.1l-0.2-0.1h-0.3
			l-0.3,0.1l-0.4,0.1h-0.4h-0.1l0,0h0.1H12l0.4-0.1l0.3-0.1H13l0.2,0.1l0.1,0.1h0.2h0.2l0.4-0.6l0.3-0.5l0.2-0.4l-0.2-0.2l-0.3-0.1
			h-0.4l-0.3,0.1L13,369h-0.2h-0.1l-0.1-0.2h0.3l0.4-0.5L14,368l0.6-0.4l0.2-0.2l0.1-0.2l0.1-0.3l-0.2-0.5l-0.2-0.3l-0.5-0.6v-0.1
			l0,0v-0.1l-0.2-0.2l-0.1,0.3l-0.5-0.2l-0.1-0.5l-0.6-0.6h-0.3l-0.2-0.5l-0.3-0.5l-1.7-1.1l-0.5-0.8l-0.9-1.1l-1.1-0.4l-0.5-0.4
			l-0.2-0.1l-0.3-0.1H6.2L5.9,359l-0.3-0.4l-0.1-0.2v-0.3l-0.2-0.2L5,357.7l-0.1,0.2l-0.1,0.3l0.1,0.2v0.1l-0.1,0.2l-0.2-0.3
			l-0.3-0.7l-0.1-0.2H4l-0.2-0.7l-0.3-0.4l-0.2-0.8L3.1,354l-0.3-1l-0.3-1l-0.8-1.7l0,0l-0.1-0.2l-0.7-0.4l-0.1-0.2l-0.1,0.1H0.6
			l-0.2-0.2l-0.2-0.2l-0.4-0.4l-0.5-0.4l-0.4-0.1l-0.2-0.1l-0.2-0.2l-0.3-0.8l-0.3-1.5v-0.6l-0.2-1v-0.8l0.1-0.5l-0.2-0.5v-0.5v-0.3
			v-0.4l0.2,0.1l0.1,0.1v-0.1v-0.1l-0.1-0.2l-0.4-0.4l-0.4-0.8l-0.1-0.5v-0.7H-4h-0.9h-0.9h-0.9h-1.2h-0.9h-0.9h-0.9h-0.6l0,0h0.6
			h0.9h0.9h0.9H-7h0.9h0.9h0.9h0.9v-0.1l-0.1-0.2l-1.2-0.9l-0.5-0.7l-0.9-0.3l-0.2-0.1l-0.1-0.2l-0.3-0.3l-0.4-1l-0.1-0.5l-0.1-1
			V333l0.1-0.2l0.1-0.1H-7h0.4l-0.4-0.4l-0.4-0.3l-0.2-0.4l-0.6-0.6l-1-2.1l-0.5-0.9l-0.3-0.8l-0.7-1l-0.8-1.6l-0.3-0.3L-12,323
			l-0.1-0.4l-0.1-0.3l-0.3-0.2l-0.1-0.3l-0.3-0.6v-0.3v-0.6l-0.1-0.2l-0.3-0.2l-0.5-0.5l-0.5-0.7l-0.3-0.4l-0.1-0.2l-0.1-0.2
			l-0.1-0.3l-0.4-0.5l-0.1-0.2v-0.6l-0.1-0.4l-0.1-0.2l-0.5-0.5l-0.1-0.3l0.1-0.4l0.2-0.3V314l0.3-0.2l0.2,0.6l0.2,0.9l0.1,0.2
			l0.1,0.2l0.2,0.4l0.6,0.7l0.2,0.3l0.2,0.6v0.3l0.1,0.4l0.5,0.6l0.5,0.4l0.5,0.7l0.8,0.7l0.5,0.2l0.3-0.4l0.2-0.4l0.1-0.3l0.1-0.8
			l0.5-1.3l0.3-1.6l0.3-0.5l0.2-0.1l0-0.9l-0.2-0.8l-0.2-0.6l-0.2-0.7l-0.4-0.8v-0.2l-0.1-0.3l-0.2-0.8l-0.2-0.5l-0.2-0.7l-0.1-0.3
			v-0.1l-0.1,0.1l-0.8,0.4l-0.7,0.2h-0.8l-0.5,0.2l-0.1-0.1l-0.1-0.1l-0.6,0.2h-0.1l-0.5,0.1h-0.2l-0.2-0.1l-0.6-0.5l-0.2-0.1h-0.1
			l0.1,0.2l0.1,0.1l-0.2,0.3l-0.3,0.1l-0.1-0.2l-0.2-0.2l-0.3-0.1l-0.4-0.2l0.3-0.4v-0.2l0.5,0.5h0.2l-0.5-0.5l-0.2-0.1h-0.1
			l-0.7,0.2h-0.2l-0.9-0.4l-0.3-0.1h-0.1l-0.1,0.3l-0.1,0.1l-0.5,0.1l-0.4,0.1h-0.4l0.9-0.3l0.1-0.1l-1,0.3l-0.5,0.1l-0.1,0.2
			l-0.1,0.1l-0.1,0.1l-0.1,0.2h-0.3h-0.2l-0.3,0.1l-0.9,0.7l-0.5,0.3l-0.4,0.2l-0.3,0.1h-0.2l-0.3-0.1l-0.5-0.3l-0.8-0.4l-1.5-0.2
			l-0.4-0.3h-0.6l-0.2-0.1l-0.8-0.5l-1.3-0.3l-0.9-0.1l-1.6-0.4l-1.4,0.4l-0.4-0.1L-36,308l0,0l-0.1-0.2l-0.3-0.6l-0.2-0.2l-0.2-0.1
			l-0.5-0.1l-0.6,0.1h-1l-0.3-0.1l-0.4-0.3l-0.3-0.1l-1.4-0.2l-0.5-0.4v-0.2l0.1-0.2l-0.1-0.6l-0.5-0.2l-0.5-0.2l-0.6-0.2l-0.5-0.3
			l-0.4-0.1h-1l-0.3-0.1h-0.2l-0.6,0.5l-0.3,0.1h-0.7l-1.2,0.7l-0.7,0.5l-0.7,0.7l-0.3,0.4l-0.2,0.4l-0.1,0.6l0.1,0.9l0.2,0.5
			l0.2,0.4l0.1,0.3v0.4l-0.1,0.4l-0.3,0.5l-0.8,1l-0.3,0.2l-0.8,0.4l-0.5,0.1l-0.5-0.1l-0.7-0.4l-1.3-1.2l-0.7-0.2l-0.3-0.2
			l-1.4-0.5l-1.6-0.4h-0.9l-0.9-0.1l-0.8-0.3l-0.4-0.2l-0.3-0.3l-0.3-0.4l-0.2-0.6l-0.1-0.5v-0.6l-0.7-1l-0.3-0.3l-1.9-0.4l-0.3-0.1
			l-0.5-0.4l-0.2-0.1l-0.9-0.3h-0.5l-0.3-0.1l-0.7-0.3l-0.4,0.1l-1.1,0.3l-0.9-0.1l-0.4-0.1l-1.3-0.8L-74,303l-0.4-0.2l0,0l0,0
			l-0.3-0.1l-0.2,0.1l-0.3-0.1l-0.1-0.1l0.1-0.1l0.1-0.1v-0.1l-0.3-0.2l-0.2-0.7l-0.4-0.2l-0.2,0.3l-0.2,0.1h-0.3l-0.1-0.3V301
			l-0.7,0.1l-0.4-0.2l-0.4-0.4l-0.3-0.7v-0.3l0.1-0.2l0.1-0.2l0.2-0.2l0.9-0.7l0.4-0.5l0.5-0.7l0.3-0.5l0.5-0.7l-0.2-0.3v-0.4
			l-0.1-0.4v-0.3l-0.6-0.5l-0.3-0.1l-0.3-0.3l-0.2-0.5l-0.1-0.5v-0.3l0.1-0.2l0.3-0.3l0.4-0.3l0.5-0.9l0.3-0.3l0.2-0.1l-0.1-0.3
			l-0.1-0.4h-0.3l-0.5,0.5l-0.5,0.2l-0.1,0.3l-0.3,0.2l-0.3-0.2l0.1-0.3l-0.4-0.6v-0.6l-0.3-0.2h-0.3H-79v0.1v0.1l-0.2,0.2l-0.1-0.3
			l0.1-0.2l0.1-0.2l-0.2-0.1h-0.2l-1.5,0.5l-0.2,0.1l-0.7,0.6l-0.7,0.2l0,0l-1.3,0.1l-0.6,0.2l-0.3-0.1l-0.5-0.4l-0.5-0.2l-0.6-0.1
			l0.1,0.4l-0.3,0.1l-0.6,0.1l-1-0.3l-0.3-0.3l-0.4,0.1l-0.2,0.4l-0.5,0.3l-1,0.2l-0.8,0.4l-0.4,0.1l-0.3-0.1l-0.6-0.5l-0.3-0.2
			l-0.3-0.1H-96l-0.7,0.4h-1.5l-0.4,0.2l-0.7,0.5h-0.7l-1,0.1l-2,0.2l-0.8,0.3l-0.5,0.3l-0.8,0.3l-0.6,0.3l-0.5,0.3l-0.3,0.6
			l-0.3,0.2h-0.4l-0.5-0.2h-0.2l-1.4,0.7l-0.5,0.3l-0.3,0.3l-0.4,0.5l-0.4,0.2l-0.5,0.4l-0.7,0.3h-0.3l-0.6-0.1l0.1,0.3l0.2,0.2
			l0.6,0.5l0.4,0.3v0.1v-0.1l-0.4-0.3l-0.6-0.5l-0.2-0.2l-0.1-0.3l-0.6-0.1h-0.6l-0.3-0.1h-0.3l-0.1-0.2l-0.2-0.4l-0.1-0.1v-0.2
			v-0.2l-0.3,0.3l-0.4,0.3l-0.5,0.1l-0.5-0.1l-0.3-0.2l-0.3,0.1h-0.5l-1,0.3l-0.8-0.2l-0.6-0.3l-0.8-0.6l-0.4-0.5l-0.2-0.5v0.4
			l0.2-0.2l-0.3-0.1l-0.4,0.2l-0.3,0.1h-0.4l-0.5,0.1l-0.1,0.4l-1.1,3.1l-1.1,2.2l-0.4,0.6l-0.7,0.5l-1.2,0.6l-2.1,0.9l-0.6,0.4
			l-0.2,0.2l-0.7,0.9l-1.2,1.2v0.3l-0.1,0.8l-0.2,0.5l-0.9,1.2l-0.4,0.9l-0.1,1.2v0.7l-0.1,0.4l0.1,0.2l0.2,0.1l0.3,0.5l0.1,0.3
			l-0.1,0.8l-0.2,0.5l-0.3,0.5l-0.4,0.5l-0.5,0.8l-0.8,1l-0.5,0.4l-1.1,0.7l-0.6,0.6l-0.4,0.5l-0.3,0.2l-1.2,0.6l-1.4,0.4l-0.9,0.1
			l-0.4,0.2l-0.3,0.5l-0.4,0.4l0,0h5.4l0,0h-5.4l-0.2,0.7l-0.4,0.9l-0.2,0.9l-0.2,0.4l-0.3,0.3l-0.7,0.5l-0.6,0.2l-0.4,0.4l-0.3,0.1
			l-0.2,0.3l-0.1,0.7l-0.2,0.4l-0.3,0.8l-0.2,0.4l-0.1,0.6v1.1l-0.1,0.5l-0.4,0.5l-0.4,0.2l-1.1,1.2l-0.5,0.4l-0.3,0.3l-0.1,0.3
			l-0.1,0.2l0.2-0.2l0.2-0.2l0.2-0.1v0.2v0.1l-0.4,0.6l-0.2,0.4l-0.3,0.6l-0.3,0.4l0.1,0.2l-0.1,0.3l-0.3,0.3l-0.2,0.7l-0.4,0.8
			l-0.5,0.2l-0.3,0.3l-0.4,0.8l-0.2,1.4v0.1l-0.3,1.6l0.1,0.2v-0.3l0.1-0.3l0.1-0.4l0.1-0.6l0,0l-0.1,0.6l-0.1,0.4l-0.1,0.3v0.3
			l0.1-0.7l0.1-0.1l0.1-0.1l0.1,0.1l0.4,0.8l0.3,0.5l0.2,0.1l0.1-0.1v-0.2l0.1,0.1l0.1,0.1l0.3,0.7l0.3,0.6l-0.1,0.3v0.4l-0.1,0.6
			l-0.5,0.9l0.4-0.1l-0.2,0.3l-0.3,0.1l-0.1,0.1l0.1,0.2l0.5,0.4l0.3,0.4l0.2,0.8l0.2,0.6l0.1,0.9v1l-0.1,1l-0.4,1l-0.4,0.8l-0.3,1
			v0.4l-0.2,0.5v1.3l0,0l-0.1,0.3l-0.8,1.3l-0.9,1.1l-0.7,0.4l-0.3,0.1l0.3,0.3l0.1-0.2h0.2l0.2,0.1l0.3,0.2l0.2,0.5l0.3,0.2
			l0.3,0.6l0.2,0.3v0.3h0.1l0.2-0.1h0.1l-0.1,0.1l-0.3,0.1l-0.1,0.2l0.1,0.2l0.3,0.2l0.2,0.2l0.1,0.3l0,0l0.1,0.4l0.3,0.3h0.2
			l0.6-0.3h0.8l0.8-0.1h0.4l0,0h-0.1h-0.4l-0.5,0.1h-0.5l-0.5,0.1l-0.1,0.2v0.1h-0.2l-0.4,0.1l-0.4-0.1l-0.1-0.2v-0.2l-0.2-0.1
			l-0.2,0.1l-0.2,0.2l0.2,0.6v0.2l0,0v0.2v0.3v0.5l-0.1,0.1v0.1l0.1,0.1l0.1-0.1l0.1-0.1l0.1-0.2l0.1-0.1l0.1,0.1l0.3,0.1l0,0v0.1
			h-0.1l-0.2-0.1l-0.3,0.1l-0.2,0.1l-0.1,0.2l0.1,0.2l0.1,0.1l0,0l0.8,0.4l0.3-0.1h0.2v0.1l-0.2,0.2v0.3l0.2,0.2l0.4,0.2l0.5-0.1
			l0.1,0.1v0.1l-0.1,0.4l0.3,0.1l0.5-0.2l0.4-0.3l0.2-0.1h0.7l0.2-0.1h0.1v0.1l-0.1,0.1h-0.1l-0.2,0.1h-0.6l-0.1,0.1l-0.1,0.2v0.2
			l0.3,0.3h0.1l0.1-0.1l0.2-0.1l0.3,0.1l0.1,0.2h-0.3h-0.2l-0.5,0.2l-0.1,0.3l0.1,0.1h0.1h0.1v0.1l-0.1,0.1v0.2v0.1l0.2,0.2h0.2h0.1
			v0.4h0.1l0.2-0.3h0.1l-0.1,0.4l0.1,0.2l0,0v0.3l0.1,0.1h0.1l0.1-0.4l0.1-0.1h0.1l0.2,0.1l0.1,0.2l0.2,0.3v0.1l0.2-0.2v0.1
			l-0.1,0.3v0.2l0.5,0.9l0.7,0.3h0.2h0.1v0.1v0.2l0.2,0.2l0.4,0.2h0.2l0.1-0.1h0.1v0.2l0.1,0.2v0.4l-0.1,0.3h0.3l0.4,0.4l0.1,0.2
			v0.1l0.3,0.3l0.1,0.1l-0.1,0.3v0.1l0,0l0.1,0.2l0.3,0.3h0.3v0.1h-0.4l-0.1,0.2v0.2l0.1,0.3h0.2l0.1-0.1h0.4l0.1-0.1v0.1l-0.1,0.1
			l-0.2,0.2l-0.3,0.3h-0.2l-0.1-0.1h-0.2v0.2l0.2,0.3l0.1,0.3h0.4l0.2,0.2l0.1,0.3l0.1,0.6l0.1,0.1l0.2,0.1l0.2,0.2h0.4l0.2-0.1h0.1
			l-0.1,0.2l0.2,0.3l-0.1,0.3v0.2l0.4,0.1l1.2,0.4l0.5,0.3l0.5,0.4l0.1,0.1l0.1-0.1l0,0l-0.1,0.1l0.6,0.6l0.8,0.4l0.4,0.3l0.2,0.4
			l0.2,0.1l0.3,0.1l0.5,0.1l0.4,0.3l1.7,1.6l0.8,0.8l0.7,0.5l2.5,1.3l0.7,0.2l1,0.4h0.3l-0.1-0.1l0,0l0.1,0.1l0.3-0.1l0.5-0.3
			l0.5-0.2l0.4-0.3l0.2-0.1l0.8-0.3l1.4-0.5l0.4-0.2l1-0.2l1.4-0.1l-0.1-0.1h-0.5h-0.3l0.1-0.1l0.1-0.1h0.7l0.2,0.2h0.2l0.7-0.1
			l1.8-0.2l-0.1-0.1h-0.1l-1.4,0.1l0.2-0.1l0.5-0.1h0.7h0.4l0.3,0.2l1.5,0.3l0.1-0.1l0.2-0.5l0.1-0.1h0.1v0.4l0.3,0.1h0.1v0.1h0.2
			l0.2-0.1h0.2l0.1-0.1v-0.2v-0.2l0.1-0.1v-0.2l0,0v0.2l-0.1,0.1v0.2v0.2l-0.1,0.1h-0.2l-0.2,0.1h-0.2h-0.2l0,0l-0.4-0.1l-0.1,0.1
			l0.4,0.1l0,0h0.1l0.3,0.1l0.7,0.1l0.9,0.2l0.4,0.2l0.5,0.3h0.2l0.6-0.3l0.4-0.3l0.4-0.2l1.2-0.4l0.7-0.1l0.4-0.3l0.5-0.2l0.4-0.3
			l0.6-0.2l1.1-0.5h1.2h0.2l0.6-0.1l0.2-0.3l0.1-0.2l0.2-0.2l0.2-0.1l0,0l0.3-0.2l0.9-0.2v-0.1l0,0v0.1l0.5-0.1l1.3-0.2l1.2-0.1V383
			l0.1-0.5l0.1-0.2l0.1-0.1l-0.1-0.2l-0.1-0.2v-0.4l0.1-0.1v-0.1V381v-0.6l0,0v0.6v0.2v0.1l-0.1,0.1v0.4l0.1,0.2l0.1,0.2l-0.1,0.1
			l-0.1,0.2l-0.1,0.5v0.2h0.2l1.6-0.1l0.3-0.4h0.2l0.6-0.2h0.1l-0.6,0.3l-0.2,0.1l-0.1,0.1l0.1,0.1h1.8l0.9,0.2l0.6,0.4l0.6,0.5
			l0.5,0.6l0.1,0.1v0.1v0.2l0.2,0.1l0.3-0.1l0.1-0.1h0.1v0.2l0.1,0.1h0.2h0.1l-0.2,0.1h-0.3h-0.2v0.1l0.1,0.1l0.4,0.2l0.5-0.2v0.1
			l-0.1,0.1h-0.2l-0.2,0.1v0.2v0.2l0.1,0.1l0.2,0.1l-0.1,0.1h-0.1h-0.1l0.2,0.5l0.1,0.3l0.2,0.3l0.1,0.2l0.6,0.5l0.3,0.2l0.2,0.1
			l0.3,0.1h0.3h0.1v-0.3l0.2-0.1v0.2l-0.1,0.1v0.1h0.1l0.5-0.1h0.1h0.2l0.1-0.4l0.1,0.1v0.2v0.1h0.2h0.1l0.3-0.1l-0.2-0.3v-0.3v-0.2
			l-0.1-0.2h0.1l0.1,0.2v0.3l0.1,0.2l0.2,0.1h0.3l0.4-0.3v-0.3l-0.2-0.2v-0.1l0.2,0.1l0.2,0.2l0.2,0.2h0.5l0.1-0.1v-0.1l0,0l0.1,0.3
			l0.2,0.1h0.4l0.6-0.1h0.7l0.1-0.3l-0.3-0.7h0.1l0.3,0.3h0.1l0.1,0.2l0.2,0.1l0.1-0.1l0,0l0,0l0,0l-0.1,0.4v0.1l0.1,0.1h0.2
			l0.1-0.1l-0.1-0.3l0.1,0.1l0.2,0.2h0.1h0.1h0.1l0.1,0.1v0.3v0.2l0.1,0.2l0.1,0.2l0.1,0.4l0.3,0.1l0.4,0.1l0.1,0.1v0.1h0.1h0.2
			l0.1-0.1l0.1-0.2v-0.2h0.1l0.1,0.1h0.1l0.2-0.1l0.1,0.1l-0.1,0.1v0.1l0.3,0.2v0.1H-80l-0.1,0.2h-0.1l0.2,0.3l0.1,0.2h0.3l-0.3,0.2
			l0.6,0.6l0.1,0.2l0.1,0.5l-0.2,0.5v0.5l-0.1,0.5l-0.1,0.7h0.1v0.1v0.1l0.1,0.1l0.3,0.1h0.9h0.5h0.8l0,0h-0.8h-0.3h-0.9l-0.3-0.1
			l-0.1-0.1v-0.1v-0.1h-0.1l-0.1,0.7l0.1,0.4l-0.2,0.4l-0.2,0.5v0.1l-0.1,0.1l-0.3,0.3l-0.2,0.4l-0.1,0.4l0.2,0.1h0.2l0.3,0.2v0.1
			l0,0v0.1l0.1,0.6v0.4v0.2l0,0l-0.1-0.1v-0.2h-0.1l-0.5,0.2v0.2l0.2,0.2l0.2,0.4l0.2,0.2l0.6,0.3l0.5-0.1l0.2,0.1l-0.5,0.2v0.2
			l-0.2-0.1l-0.5-0.2h-0.3l-0.2-0.1l-0.1-0.1v-0.2l-0.1-0.1l-0.1,0.2l0.1,0.5v0.5l-0.1,0.8l-0.5,0.6l-0.2,0.1h-0.1h-0.1l-0.1,0.2
			l-0.4,0.1l-0.2-0.3l-0.2-0.1l0.4,0.9l0.1,0.1l0.1,0.2l0.1,0.1l0.3,0.6l0.4,0.2h0.2h0.1l0.1-0.1h0.1l-0.2,0.4v0.1l0.1,0.1h0.2
			l0.1-0.1l0.1,0.1l0.1,0.1l-0.3,0.1h-0.1h-0.1l-0.8-0.9v0.2l0.3,0.4l0.3,0.6v0.1v0.1h0.2l0.4,0.2v0.1v0.1l-0.4-0.2h-0.1l0.2,0.2
			l0.1,0.1l0.4,0.4l0.1,0.2v0.2l0.1,0.2l0.1,0.1h0.3l0.3,0.1l0.3,0.1l0.3,0.2l-0.1,0.1h-0.1l-0.7-0.3h-0.1l0.1,0.1l0.7,0.6l1,0.7
			l0.7,0.7l0.2,0.3l0.6,0.5l0.3,0.3l0.2,0.5l0.3,0.3l0,0l0.7,0.6l0.1,0.2l0.8,0.7l0.3,0.4v0.3l0.1,0.1l0.1,0.1l0.2,0.3l0.2,0.2
			l0.1,0.1v0.1l0,0l0.1,0.1l0.2,0.5l0.2,0.4l0.1,0.4l-0.1,0.2l-0.1,0.3l0.1,0.3v0.1l0,0l0.1,0.1l0.2,0.2l0.3,0.3h0.1h0.2l0.5-0.1
			l0.3-0.2l0.2-0.1l0.4-0.1l0.2,0.1h0.3l0,0h-0.3l-0.2,0.1l-0.6,0.3l-0.7,0.1l-0.5,0.1h-0.2l-0.1,0.1l0.1,0.2l0.2,0.5l0.3,0.7l0.8,1
			l0.1,0.8l0.6,1.5l0.8,1.7v0.3v0.2v0.2l-0.1,0.2l-0.9,0.9v-0.1l0.1-0.1v-0.1l-0.1,0.1l-0.1,0.2v0.2l0.2,0.5l0.2,0.5l0.1,0.5v0.4
			l0.2,0.4l0.1,0.5l0.5,0.7l0.1,0.5l0.3,0.3l0.2,0.3v0.4l0.3,0.5v0.4l-0.2,1.2v0.9l-0.3,0.9l-0.2,0.5l-0.5,0.7l-0.7,0.4l-0.5,0.4
			l-0.2,0.7l-1,1.2l-0.1,0.9l-0.3,0.8l-0.3,1.7l-0.6,1.8l-0.2,0.8l-0.1,0.4l-0.2,0.3l-0.1,0.1l-0.3,0.2l0.1,0.2l0.1,0.2l0.1,1.5v0.6
			l-0.1,0.5l-0.1,1.1l0,0l-0.1,0.6v0.8l0.1,0.7l0.5,0.8l0.3,0.6l0.2,0.2l0.7,0.6l0.4,0.5l1.6,3.3l0.4,0.5l0.3,1l0.5,1.2l1.1,1.7
			l0.1,0.4l0.2,0.5l1,1.3l0.4,0.8l0.2,0.8v0.3l-0.1,0.4h-0.1l-0.1-0.1l-0.1,0.3l0.1,0.3l0.1,0.6v0.6l0.1,0.5v1.2l0.1,0.5l0.4,1.1
			l0.4,0.7l0.2,0.8l-0.1,0.7v0.3l0.1,0.5l-0.1,0.6l0.2,0.7l0.1,1.1l0.4,0.3l0.1,0.3l0.1,0.3l-0.1,0.2v0.4l0.2,0.7l0.2,0.9l0.2,0.4
			l1.1,1.8l0.5,0.6l0.3,0.3l0.9,1l0.3,0.3l0.1-0.1l0.4-0.3l0.2-0.1l0,0l-0.2,0.1l-0.4,0.3l-0.1,0.1l0.1,0.1l0.7,1.2l0.6,1.3l0.7,2.3
			l0.4,1.1l0.9,1.9l0.7,1.2l0.6,0.9l0.1,0.3l0.3,1.3l0.1,0.5v0.8l-0.2,0.5l-0.4,0.3l-0.2,0.1l-0.2-0.2l-0.2,0.1l-0.1,0.3l0.1,0.4
			l0.2,0.3l0.1,0.4l0.2,0.2l0.2,0.5l0.3,0.2l0.1,0.3l0.3,0.7l0.1,0.3v0.3l-0.3,0.2l-0.1,0.5l0.1,0.4l0.2,0.4l0.1,0.2v-0.6l0.1-0.2
			l0.1-0.1h0.2h0.3h0.1l0.2,0.1v0.3v0.2v0.1v0.2h0.2l0.1-0.1h0.4l0.1,0.2h0.3l0.1,0.1l0.1,0.2v0.3l-0.1,0.2h0.3l0.7,0.5h0.6l0.2,0.1
			h0.3l1.2-0.9l0.3-0.2l0.7-0.1l0.3-0.2l0.3-0.1h0.2l0.5,0.1h0.3l0.6-0.1h0.7l1.3-1l0.5-0.1l0.4-0.1h0.5l0.5,0.2l1,0.1h0.2l0.7-0.3
			h0.3l1.4,0.2l1.2,0.4h0.6l0.2-0.4l0.3-0.3h0.5l0.9,0.2h0.3l0.2-0.1v-0.5l0.4-0.4l0.5-0.1l1.2,0.2l0.5-0.2l1.3-0.6l0.8-0.5l1.1-0.9
			l0.3-0.1l1-1l0.7-0.5l1.1-1.1l0.8-1l1-1.1l0.7-0.7l0.3-0.2l0.4-0.3l0.9-1.2l0.5-0.8l0.5-0.9l0.6-1.2l0.4-0.6l0.4-1l0.5-0.7
			l1.2-1.4l0.3-0.1l0.2-0.1l0.2-0.1l0.7-0.7l0.3-0.4l0.4-1l0.3-1.9l0.1-0.5l0.4-1.1l0.1-0.7l0,0v-0.1l0.1-1.8l0.1-0.5h-0.1l-0.1,0.1
			l-0.1,0.4l-0.1-0.1l-0.1-0.1l-0.2-0.1l-0.2-0.2l-0.2-0.3l0.2-0.3l0.2-0.3l0.2-0.5l0.5-0.5l1.1-0.7l0.5-0.2l0.9-0.4l2.2-0.8
			l1.1-0.5l0.5-0.3l0.3-0.3L-7,472l0.1-0.3l0.1-0.7l-0.1-0.1H-7l-0.1,0.2h-0.2l-0.1-0.1v-0.3l0.3-1.6l0.2-0.7l-0.2-0.6v-0.3l0.1-0.9
			v-0.2v-0.2l-0.1-0.2v-0.2h-0.1l-0.1,0.2v0.4v0.3l-0.1,0.2l-0.2-0.2v-0.4v-0.7l-0.2-0.8v-0.3l-0.4-0.8v-0.6l-0.4-1.2l-0.3-0.4
			l-0.3-0.3l-0.2-0.3v-0.2l0.1-0.9v-0.5V459l-0.1-0.2l-0.2-0.2h0.2l0.4,0.3h0.1h0.2l1.2-0.9l0.8-1l0.6-0.5l0.4-0.2l0.4-0.2l0.2,0.1
			H-5l0.1-0.4l0.2,0.2l0.2-0.1v-0.2l0.2-0.3l0.1-0.2l0.6-0.6l0.4-0.5l0.1-0.1l0.1-0.3l0.2-0.2l0.1-0.1l0.5-0.5l0.8-0.5l0.9-0.5
			l0.6-0.2l0-0.9l0.2-0.1l0.7-0.2l0.7-0.3l0.1-0.1h0.1H2h0.4l0.2-0.1l0.4-0.1l0.3-0.4l0.2-0.1l1.1-0.6l0.4-0.3l0.2-0.1L5,447.9
			l0.1-0.2l0.3-0.1l0.3-0.5V447v-0.1l0.3-0.3l0.3-0.3l0.7-0.8l0.3-0.6v-0.2l-0.1-0.2l0.1-0.1h0.1v-0.2V444l0.2-0.3l0.2-0.1v-0.2
			l-0.1-0.2V443v-0.1v-0.2l-0.1-0.1H7.5l-0.2,0.1v-0.3v-0.2l0.2-0.3v-0.2H7.3l-0.1-0.1v-0.1v-0.8l-0.1-0.6v-0.3v-0.2l0.1-0.3
			l-0.1-0.2v-0.2v-0.3v-0.2v-0.2H6.7v-0.1V438l0.3-0.2l0.1-0.2v-0.4L7,436.9l-0.2-0.1l0.1-0.3v-0.2v-0.6l0.1-0.3l-0.1-0.2v-0.3
			l-0.2-0.5l0.1-0.6l-0.2-0.3l0.1-0.2l0.2-0.2l0.1-0.3v-0.1l-0.1-0.1v-0.2l0.2-0.3l-0.3-0.2l0.2-0.1l0.2-0.2l-0.3-0.3L6.8,431
			l-0.3,0.2L6,431.6L5.5,432l0,0l0.5-0.4l0.5-0.4l0.3-0.2v-0.1v-0.1l-0.1-0.2l-0.5-0.3L6,430.2l-0.2-0.1H5.5l-0.1-0.2l-0.2-0.2
			l-0.4-0.1l0.2-0.2v-0.2l-0.1-0.3l-0.1-0.4L4.6,428v-0.6l-0.5-0.7l0.1-0.1v-0.1l-0.3-0.4l-0.2-0.8V425l0.1-0.3l0.3-0.7v-0.6
			l-0.3-0.2l-0.1,0.1v-0.8l0.2-0.5l0.2-0.4l0.2-0.2l0.1-0.3l-0.2-0.4l-0.5-0.2l-0.2-0.4l-0.3-0.4L3,419.5l-0.2-0.1l-0.3-0.3V419
			l3.5-8.5l0,0v-0.1l0.7-1.8h0.1h0.7l0.5-0.4V408l0.2-0.2l-0.1-0.1v-0.2v-0.3l0.1,0.1h0.1l0.1-0.2l0.1-0.1l0.2,0.1h0.1l0.5-0.1
			l0.3-0.2l0.4-0.5l0,0l0.3-0.3l0.3-0.4l0.3-0.6l0.1-0.1l0.1-0.3l0.2-0.2l0.4-0.3l0.3-0.3l0.5-0.6l0.2-0.1l0.3-0.4l0.2-0.2l0.2-0.2
			l2.1-2.2l0.7-0.7l0.9-0.7l0.8-0.8l1.6-1.2l2.5-1.4l0.6-0.5l2.3-2.3l1.8-1.9l1.3-1.5l0.7-1.3l1.2-1.5l1.1-1.9l0.1-0.7l0.4-1
			l0.3-0.6l0.6-0.9l0.3-0.5l0.3-0.5l0.3-0.9l0.7-0.7l0.5-0.9l0.1-0.3l0.3-0.6l0.6-0.7l0.1-0.4l0.4-0.5v-0.8l0.1-0.6l0.1-0.9l0.1-0.2
			l0.3-0.1l0.5-0.1l0.2,0.1h0.3v-0.1L37.4,372z M13.9,365.8l0.2-0.1L13.9,365.8l-0.3,0.1l0,0L13.9,365.8z M13.2,366.4l0.2-0.4
			l0.1-0.2l0,0l-0.1,0.2L13.2,366.4l-0.1,0.2l0,0L13.2,366.4z M12.2,366.2L12.2,366.2L12.2,366.2L12.2,366.2L12.2,366.2z
			 M-150.6,354.6l-0.4,0.1h-0.5l-0.3-0.1l-0.1-0.1h-0.2h-0.2l0,0h0.2h0.2l0.1,0.1l0.3,0.1h0.5L-150.6,354.6L-150.6,354.6z
			 M-73.4,450.6L-73.4,450.6l0.3-0.2l0,0L-73.4,450.6z M-70.9,450.2L-70.9,450.2l0.1-0.1L-70.9,450.2z M3.9,432.7L3.9,432.7
			l-0.3,0.2l0,0L3.9,432.7z M13.3,372.3l-0.2-0.3l-0.2-0.2v-0.1l0,0l0,0v0.1l0.2,0.2L13.3,372.3l0.1,0.3l0,0l0,0L13.3,372.3z
			 M10.4,369.3L10.4,369.3L10.4,369.3L10.4,369.3L10.4,369.3z M9.6,363.5l-0.3-0.2l0,0L9.6,363.5z M7.6,361.5L7.6,361.5l-0.7-0.2
			l0,0L7.6,361.5z M6.5,360.9l0.2,0.1L6.5,360.9l-0.1-0.1L6.5,360.9z M3.4,360.5l0.5-0.1l0.2-0.1l0.2,0.1h0.3h0.2l0.4,0.2l0.5-0.1
			h0.2l0.2,0.2l0,0l-0.2-0.1H5.7l-0.5,0.1l-0.4-0.2H4.6H4.3l-0.2-0.1l-0.2,0.1H3.4H3.2l0,0H3.4z M2.7,360.2l0.1-0.1l0,0L2.7,360.2
			l-0.3,0.2l0,0L2.7,360.2z M-30,490.3L-30,490.3l-0.1-0.2l0,0L-30,490.3z M-145.3,365.7L-145.3,365.7L-145.3,365.7L-145.3,365.7z
			 M-148.9,354.2L-148.9,354.2L-148.9,354.2h-0.2l0,0H-148.9L-148.9,354.2z M-148.8,354.1L-148.8,354.1l0.2,0.1h0.4h0.7l0.2,0.1l0,0
			l-0.3-0.1h-0.7h-0.4L-148.8,354.1L-148.8,354.1L-148.8,354.1z M-74.6,303.8v-0.2l0.1-0.6v-0.1v0.1l-0.1,0.6V303.8v0.3V303.8z
			 M-74.6,304.6l0.2,0.4v0.2V305L-74.6,304.6L-74.6,304.6z M-111.6,299.4v0.6V299.4l-0.1-0.2L-111.6,299.4z M-149.5,340.3h0.6h0.6
			l0,0h-0.6H-149.5h-0.3H-149.5z M-150.3,354.5L-150.3,354.5l0.4-0.1h0.5l0.2-0.1l0,0l-0.3,0.1h-0.5L-150.3,354.5z M-145.9,367
			L-145.9,367L-145.9,367l0.1-0.1L-145.9,367z M-145.6,363.8l-0.5,0.1l-0.7,0.2l-0.5-0.1l-0.7-0.2l-0.4-0.2l-0.2-0.1l-0.2-0.1
			l-0.2-0.1l-0.2-0.1h-0.2l-0.1,0.1l-0.1,0.1l-0.1,0.2l-0.1,0.1l-0.5,0.1l-0.5,0.1l-0.3,0.1h-0.2l-0.1,0.5h-0.6h-0.5h-0.6h-0.6
			l-0.2,0.1l-0.2,0.2l0.2-0.2l0.2-0.1h0.6h0.6h0.5h0.6l0.1-0.5h0.2l0.3-0.1l0.5-0.1l0.5-0.1l0.1-0.1l0.1-0.2l0.1-0.1l0.1-0.1h0.2
			l0.2,0.1l0.2,0.1l0.2,0.1l0.2,0.1l0.4,0.2l0.7,0.2l0.5,0.1l0.7-0.2L-145.6,363.8l0.1-0.2l-0.1-0.2l0.1,0.2L-145.6,363.8z
			 M-145.2,366.8L-145.2,366.8l-0.1,0.1L-145.2,366.8L-145.2,366.8L-145.2,366.8L-145.2,366.8z M-145.2,366.3l-0.2-0.3l0,0
			L-145.2,366.3L-145.2,366.3z M-143.3,375.8L-143.3,375.8l0.1-0.3l0,0L-143.3,375.8z M-142.4,374.8L-142.4,374.8l0.1-0.2l0,0
			L-142.4,374.8z M-142.1,374.4L-142.1,374.4L-142.1,374.4v-0.1V374.4z M-138.1,381l-0.3,0.2l-0.2,0.3l0.2-0.3L-138.1,381l0.1-0.1
			L-138.1,381z M-137.7,380.6l-0.2,0.1L-137.7,380.6l0.3-0.2L-137.7,380.6z M-136.8,379.8L-136.8,379.8L-136.8,379.8L-136.8,379.8
			L-136.8,379.8z M-129.2,383.9h-0.2h-0.2h-0.2l-0.2-0.1l-0.2-0.1l-0.2-0.2l-0.1-0.1h-0.1h-0.1l-0.1-0.1l0,0l0,0l0,0l0.1,0.1h0.1
			h0.1l0.1,0.1l0.2,0.2l0.2,0.1l0.2,0.1h0.2h0.2H-129.2l0.3,0.1l0,0L-129.2,383.9z M-128.8,384.5L-128.8,384.5l0.1,0.1l0,0
			L-128.8,384.5z M-127.7,385.1L-127.7,385.1h-0.1l-0.3-0.2h-0.3l-0.2-0.2l0,0l0.2,0.2h0.3l0.3,0.2H-127.7L-127.7,385.1
			L-127.7,385.1L-127.7,385.1L-127.7,385.1z M-115.9,382.9L-115.9,382.9l0.1-0.1l0,0L-115.9,382.9z M-115.3,381.6l-0.4,0.5l-0.2,0.4
			l0,0l0.2-0.4L-115.3,381.6L-115.3,381.6z M-105.3,382.3L-105.3,382.3L-105.3,382.3L-105.3,382.3z M-105,381.2l-0.1,0.4v0.2v0.1
			l-0.1,0.1v0.1l0,0V382l0.1-0.1v-0.1v-0.2L-105,381.2v-0.1V381.2z M-104.8,383.2L-104.8,383.2L-104.8,383.2L-104.8,383.2z
			 M-101.8,383.9l-0.1-0.4l-0.3-0.4l-0.1-0.1l-0.1-0.2l0,0l0.1,0.2l0.1,0.1l0.3,0.4L-101.8,383.9L-101.8,383.9z M-102.5,381.9
			L-102.5,381.9l0.1,0.3l0,0L-102.5,381.9z M-102.3,382.3v0.2v0.1l0,0v-0.1V382.3z M-71.7,417.6H-72h-0.2h0.2H-71.7L-71.7,417.6
			L-71.7,417.6z M-71.6,416.8v0.8l0,0V416.8V416l-0.1-0.1l-0.1-0.1v-0.1l0.1-0.1l-0.1,0.1v0.1l0.1,0.1l0.1,0.1V416.8z M-69.2,418
			L-69.2,418l-0.2,0.1l0,0L-69.2,418L-69.2,418h0.7l0,0H-69.2z M-59.3,483.6l-0.2,0.2l-0.1,0.3l-0.1,0.1v0.2v0.2l-0.1,0.2l-0.1,0.1
			l0,0l0.1-0.1l0.1-0.2v-0.2v-0.2l0.1-0.1l0.1-0.3L-59.3,483.6L-59.3,483.6L-59.3,483.6z M-27.8,491.5l-0.1,0.2l-0.1,0.2h-0.1
			l-0.3-0.1l-0.5-0.1l-0.2-0.2l-0.2-0.2l-0.1-0.2l-0.1-0.1v-0.1l-0.2-0.1h-0.1h-0.1l-0.1-0.1v-0.1l0,0v0.1l0.1,0.1h0.1h0.1l0.2,0.1
			v0.1l0.1,0.1l0.1,0.2l0.2,0.2l0.2,0.2l0.4,0.1l0.3,0.1h0.1l0.1-0.2L-27.8,491.5L-27.8,491.5z M-25.1,489.5l-0.2,0.2l-0.1,0.1
			l-0.2,0.1l-0.5,0.2l0,0l-0.3,0.1l0,0h-0.2h-0.2H-27h-0.1l-0.2,0.2l-0.4,0.6l-0.1,0.1v0.1v-0.1l0.1-0.1l0.4-0.6l0.2-0.2h0.1h0.2
			h0.2h0.2l0,0l0.3-0.1l0.5-0.2l0.2-0.1l0.1-0.1L-25.1,489.5L-25.1,489.5z M-24.7,488.6l-0.2,0.1l-0.1,0.2l0,0l0.1-0.2L-24.7,488.6
			l0.1-0.1L-24.7,488.6z M-17.3,477l-0.6-0.4l-0.5-0.3l0,0l0.5,0.3L-17.3,477h0.1h0.1l0,0h-0.1H-17.3z M-17.1,480.1l-0.1,0.7v0.4
			l0,0v-0.4L-17.1,480.1l0.1-0.4l0,0L-17.1,480.1z M-17.1,477L-17.1,477L-17.1,477l0.2,0.1L-17.1,477z M9.5,405.6L9,405l-0.4-0.5
			l-0.2-0.3l0,0l0.2,0.3L9,405L9.5,405.6l0.3,0.3l0,0L9.5,405.6z"/>
		<polygon class="st0" points="-88,400.4 -88.2,400.4 -88.5,400.6 -88.6,400.8 -88.6,400.9 -88.5,401.2 -88.5,401.4 -88.4,401.4 
			-88.1,401.2 -87.8,400.9 -87.8,400.6 		"/>
		<polygon class="st0" points="-85.9,396.8 -86,396.8 -86,396.8 -86.2,397 -86.2,397.2 -86,397.2 -85.9,397.1 -85.9,397.1 
			-85.9,397 -85.9,396.9 		"/>
		<polygon class="st0" points="-75.1,297.3 -75.2,297.3 -75.5,297.5 -75.6,297.7 -75.1,297.5 		"/>
		<polygon class="st0" points="-76.1,300.4 -76.6,300.4 -76.7,300.5 -76.7,300.9 -76.6,301 -76.5,301 -76.3,301.1 -76.2,301.1 
			-76.1,301 -76,301 -75.9,300.9 -75.8,300.8 -75.8,300.7 -75.9,300.6 		"/>
		<polygon class="st0" points="3.4,419.2 3.6,419.2 3.7,419.4 3.9,419.4 3.9,419.6 4,419.7 4.1,419.7 4.3,419.6 4.3,419.5 
			4.1,418.9 4.1,418.9 4,418.8 3.9,418.7 3.7,418.2 3.7,417.8 3.5,417.6 3.4,418 3.2,418.2 3.3,418.6 3.2,418.9 		"/>
		<polygon class="st0" points="4.6,416.7 4.7,416.8 4.8,416.8 4.9,416.7 5.1,416.3 5.1,416 5.1,415.6 5.1,415.4 5.1,415.3 
			4.9,415.4 4.6,415.4 4.6,415.9 4.5,416.6 		"/>
		<polygon class="st0" points="4.5,424 4.5,424 4.7,424 4.7,424 4.8,423.8 5,423.7 5.2,423.3 5.2,423 5.2,423.1 5.1,423.3 
			4.7,423.6 4.5,423.7 4.4,423.8 		"/>
	</g>
</g>
<g id="Layer_2">
	<path class="st1" d="M-71.9,459.9c3.5,6,4.5,4.8,9.5,1.8c2.8-1.6,6.1,0.4,8.1,4.3c2.2,4.3,6.3,15.4,11,16.7c5.7,1.6,9.1,0,12,3.1
		c3.6,3.8,4.2,9.6,0,12.8c-2.9,2.3,0.1,6.4,2.3,4.8s6.7-5.9,10.6-9.2c6.7-5.7-1.2-16.3-5.9-21.9c-4.4-5.3,1.1-8.4,3.4-9.8
		c2.3-1.3,8.6-4.9,5.3-9.6s2.6-7.8,5.8-9.1c0,0,4.4-1.5,3.5-5s1.2-11.9-3.9-14.3s-7.9-8.3-3.2-11.5s5.9-2.4,9.1,0.3
		s3.8,12.1,6.6,13.1s5,1.4,5.6-0.4s6.3-16.2,6-18.3c-0.4-3.1-6.1-8.1-8.8-10.9C2.7,394.3-3.2,386-12,386.1s-10.2,3-12.5,6.1
		s-7.6,19.2,2,26.4s4,11.5,1.5,11.7S-37.6,441-37.6,441s-3.2,2.4-1.7,4.6s6.8,10.1,3.3,12.8s-17.6-1.1-22-2.9s-5.3-4.6-12.8-4.7
		S-71.9,459.9-71.9,459.9z"/>
	<path class="st1" d="M-153.7,351.9c3.4,0.2,4.3,3.2,6.9,5.3c3.1,2.5,10.7,5.2,18.5,5.2s14.5-6,29.1-7c23.7-1.7,27.1,4.8,27.1,11.2
		s-6.3,19.6-6.3,19.6s-5.3,9.9-14.8,6.4s-5-15-2.9-20.9s-4.5-8-7.4,0s-2.6,17.7-7.7,19.6s-17.2,4.2-19.8-0.2
		c-2.6-4.5,5.1-17.5,3.4-20.8s-20.5,7.1-26.1,2C-159.1,367.3-167.2,351.1-153.7,351.9z"/>
</g>
</svg>
