<?xml version="1.0" encoding="utf-8"?>
<!-- Generator: Adobe Illustrator 19.0.0, SVG Export Plug-In . SVG Version: 6.00 Build 0)  -->
<svg version="1.1" xmlns="http://www.w3.org/2000/svg" xmlns:xlink="http://www.w3.org/1999/xlink" x="0px" y="0px"
	 viewBox="-185 288.7 239.1 217.3" style="enable-background:new -185 288.7 239.1 217.3;" xml:space="preserve">
<style type="text/css">
	.st0{fill:#FFFFFF;}
	.st1{fill:#DA6026;}
</style>
<g id="svg2" mapsvg:geoViewBox="-25.360994 37.343521 59.838547 -34.833225" xmlns:rdf="http://www.w3.org/1999/02/22-rdf-syntax-ns#" xmlns:cc="http://creativecommons.org/ns#" xmlns:dc="http://purl.org/dc/elements/1.1/" xmlns:svg="http://www.w3.org/2000/svg" xmlns:mapsvg="http://mapsvg.com">
	<path id="CV" class="st0" d="M-184.5,353.6l-0.3,0.1l-0.1,0l0-0.2l-0.1-0.2l0-0.1l0.6-0.3l0.2,0.1l0.2,0.2l-0.1,0.1L-184.5,353.6
		L-184.5,353.6z M-183.7,354l-0.2,0.1l-0.1,0l-0.2-0.1l0.1-0.1l0.2-0.1l0.2,0L-183.7,354L-183.7,354L-183.7,354z M-178.1,354.5
		l-0.1,0.1l-0.1-0.2l-0.1-0.1l0-0.3l0.2-0.1l0.1,0l0,0.3L-178.1,354.5L-178.1,354.5z M-181.5,354.6l0.1,0.1l0,0.1l-0.2,0l-0.4-0.1
		l-0.1,0.1l-0.1,0.2l-0.2-0.4l0-0.1l0,0l0.3,0.1L-181.5,354.6L-181.5,354.6z M-178.2,355.7l0.2,0.1l0.1,0l0.1,0l0.2,0.2l0,0.2
		l-0.1,0.2l-0.3,0.2l-0.2,0l-0.2-0.2l0.1-0.3L-178.2,355.7L-178.2,355.7z M-179.7,359.3l-0.2,0.3l-0.4,0l-0.2-0.1l-0.2-0.3l0-0.3
		l0.1-0.2l0-0.2l0-0.1l0.1,0l0,0.1l0.3,0.3l0.1,0.1L-179.7,359.3L-179.7,359.3z M-178.9,358.9L-178.9,358.9l-0.2-0.1l0-0.2l0,0
		l0.1-0.2l0.2,0l0.1,0.1l0,0.3L-178.9,358.9L-178.9,358.9z M-182.1,359.7l-0.2,0.1l-0.2,0l-0.1-0.1l-0.1-0.2l0.1-0.1l0.3-0.2
		l0.2,0.1l0.1,0.3L-182.1,359.7L-182.1,359.7z"/>
	<path id="GO" class="st0" d="M18.9,434.5L18.9,434.5L18.9,434.5L18.9,434.5L18.9,434.5L18.9,434.5z"/>
	<path id="KI" class="st0" d="M414.6,409.6L414.6,409.6l0.2,0.1l0,0.1v0l-0.1,0l-0.1,0l0,0l0,0l0,0l0.1,0l0.1,0l0,0v0l-0.1-0.1
		L414.6,409.6L414.6,409.6L414.6,409.6L414.6,409.6L414.6,409.6L414.6,409.6L414.6,409.6L414.6,409.6L414.6,409.6L414.6,409.6z
		 M416.3,410.6L416.3,410.6L416.3,410.6L416.3,410.6L416.3,410.6L416.3,410.6L416.3,410.6L416.3,410.6z M415.9,414.4L415.9,414.4
		L415.9,414.4L415.9,414.4L415.9,414.4L415.9,414.4L415.9,414.4L415.9,414.4L415.9,414.4L415.9,414.4z M413.1,414.5L413.1,414.5
		L413.1,414.5L413.1,414.5L413.1,414.5L413.1,414.5L413.1,414.5L413.1,414.5L413.1,414.5L413.1,414.5L413.1,414.5L413.1,414.5
		L413.1,414.5L413.1,414.5L413.1,414.5z M406.7,415L406.7,415L406.7,415L406.7,415L406.7,415L406.7,415L406.7,415L406.7,415
		L406.7,415L406.7,415L406.7,415L406.7,415L406.7,415L406.7,415L406.7,415z M-561.1,390.8l0.2,0.2l0,0.1l-0.2,0l-0.1,0l0.1,0l0,0
		l-0.1-0.1l-0.1,0h-0.1l0,0.1l-0.1-0.1l0.1-0.1L-561.1,390.8L-561.1,390.8L-561.1,390.8z M371.6,393.1l-0.2,0.1l-0.1,0L371.6,393.1
		L371.6,393.1L371.6,393.1L371.6,393.1z M371.2,393.3l-0.2,0.1l-0.1-0.1l0.1,0L371.2,393.3l0.1-0.1L371.2,393.3L371.2,393.3z
		 M-555.5,396.6l0.5,0.3l-0.2,0l-0.5-0.2l-0.4-0.3l0.1-0.1l0.1,0.1l0.2,0.1l0.1-0.2l0.1-0.1l-0.4-0.2l0.1,0l0.3,0.2L-555.5,396.6
		L-555.5,396.6z M371.7,396.7L371.7,396.7l-0.1-0.1l-0.1-0.1l0,0l0,0l0.1,0.1l0,0L371.7,396.7L371.7,396.7z M371.7,397l-0.1,0
		L371.7,397L371.7,397l0-0.3l0,0l0,0.1L371.7,397L371.7,397L371.7,397z M371.7,398.1L371.7,398.1L371.7,398.1l0.3-0.1l0,0l0.1,0l0,0
		l0,0l-0.2,0L371.7,398.1L371.7,398.1L371.7,398.1z M371.7,399l0.2,0.1l0,0.1l-0.1,0.1l-0.2,0.2l-0.1,0l0.2-0.2l0.1-0.1L371.7,399
		L371.7,399L371.7,399l-0.1,0L371.7,399L371.7,399L371.7,399z M375.9,404.1L375.9,404.1l-0.1,0L375.9,404.1l-0.2-0.4l-0.1,0
		l-0.1-0.1h0l0.1,0.1l0.1,0l0.1,0.2L375.9,404.1L375.9,404.1z M362,404.3L362,404.3L362,404.3L362,404.3L362,404.3L362,404.3
		L362,404.3z M376.6,405.2l0,0.1l-0.1,0L376.6,405.2L376.6,405.2l-0.2-0.2l0.1,0L376.6,405.2L376.6,405.2L376.6,405.2z
		 M-548.8,413.3L-548.8,413.3L-548.8,413.3l-0.1,0l-0.1,0l0,0l0.1,0l0.1,0l0,0L-548.8,413.3L-548.8,413.3z M-551.3,417.6
		L-551.3,417.6l-0.1,0l0,0l0,0h0l0,0L-551.3,417.6L-551.3,417.6L-551.3,417.6L-551.3,417.6z M-539.9,434.1L-539.9,434.1
		L-539.9,434.1L-539.9,434.1l-0.1-0.1l0-0.1l0,0L-539.9,434.1L-539.9,434.1L-539.9,434.1z"/>
	<path id="MG" class="st0" d="M25.1,437l0.1,0.3l0.1,0.3l0.5,0.7l0.2,0.3l0.2,0.3l0.1,0.6l0.3,0.9l0.3,1.3L27,443l0.1,0.6l0.2,0.6
		l0.4,0.6l0.1,0.7l-0.2,0.7l-0.3,0.7l-0.1,0.1l-0.1,0.2l-0.1,0l-0.3-0.2l-0.2-0.3l-0.3-0.7l-0.1-0.3l-0.1-0.1l-0.3,0l-0.2,0.2l0,0.1
		l0,0.4l0.1,0.3l0,0.3l0,0.4l0.1,0.1l0.1,0.1L26,448l0,0.7l-0.1,0.3l-0.2,0.3l0,0.2l0.1,0.2l-0.1,0.1l-0.3,0.1l-0.1,0.1l-0.2,0.3
		l-0.3,0.6l0,0.3l0.2,0.9l0,0.7l-0.3,1.3l-0.2,0.6l-0.3,0.7l-0.4,1l-0.4,1.2l-0.3,1.3l-0.3,0.8l-0.3,0.7l-0.4,1.3l-0.3,1.3l-0.5,1.5
		l-0.7,1.7l-0.1,0.2l-0.1,0.9l-0.2,0.7l-0.2,0.7l-0.4,1.2l0,0.4l-0.1,0.4l-0.4,0.8l-0.2,0.3l-0.1,0.3l-0.1,0.4l-0.1,0.4l-0.3,0.7
		l-0.4,0.6l-0.3,0.2l-0.6,0.3l-0.3,0.1l-0.7,0l-0.6,0.2l-0.7,0.3l-0.6,0.4l-0.2,0.2l-0.3,0.1l-0.8,0l-0.3-0.1l-0.8-0.6l-0.3-0.1
		l-0.6-0.1l-0.2-0.1l-0.2-0.1l-0.3-0.3l-0.5-0.3l-0.1-0.1L9.6,474l-0.1-0.2l-0.1-0.2l-0.1-0.5l-0.2-0.3l-0.5-0.6l0-0.2l0-0.6l0-0.4
		l0-0.7l0.1-0.3l0.2-0.3l-0.1-0.3l-0.2-0.3l-0.1-0.4l-0.1-0.3l-0.5-0.6l-0.1-0.3l-0.1-0.3l-0.2-0.9l0-0.3l0-0.7l0.1-0.4l0.1-0.2
		l0-0.2l0.1-0.2l0.1-0.1L8,464l0.2-0.9l0.2-0.2l0.3-0.1l0.3-0.2l0.2-0.3l0.2-0.6l0.4-0.6l0.2-0.3l0.3-0.5l0.3-0.7l0.1-0.3l0.1-0.3
		l0.1-0.7l0.1-0.4l0-0.4l-0.2-0.4l-0.4-0.7l0-0.1l0-0.5l0-0.4l-0.2-0.4l-0.2-0.3L9.7,454l-0.1-1l0-0.4l-0.1-0.3l-0.1-0.3l0.1-0.6
		l1.2-2l0-0.2l-0.1-0.6l0-0.4l0-0.1l0.1-0.1l0.2,0l1-0.1l0.1-0.1l0.3-0.2l0.3-0.3l0.2-0.1l0.1,0l0.1,0.1l0.1,0.1l0.4-0.1l0.2,0
		l0.2,0l0.1-0.1l0-0.2l0.1-0.1l0.1-0.1l0.5,0l0.3-0.1l0.4-0.1l0.1,0l0.3,0.5l0.1,0l0.1,0l0.1-0.1l-0.3-0.2l0-0.1l0-0.2l0.2-0.3
		l0.3-0.3l0.6-0.4l0.6-0.4l0.2,0l0.1,0.1l0.1,0.5l0,0.1l0.1,0l0.1-0.1l0.1-0.2l0-0.2l-0.1-0.2l0-0.1l0-0.1l0.3-0.3l0.2-0.3l0.1-0.4
		l0.1-0.2l0.2-0.2l0.1,0l0.1,0.1l0,0.2l-0.1,0.2l-0.1,0.2l0,0.2l0.1,0l0.1,0l0.2-0.4l0.2-0.4l0.1-0.2l0.2-0.1l0.3,0l0.3,0.1
		l-0.4-0.4l-0.1-0.5l0.5-0.9l0-0.2l0.1-0.1l0-0.1l-0.3-0.3l-0.1-0.1l0-0.2l0.1-0.2l0.1-0.1l0.2-0.1l0.1,0.1l0.3,0.2l0.2,0l0.2-0.2
		l0.2-0.3l0.3-0.2l0.3-0.1l0.5-0.5l0.3-1l0-0.3l-0.1-0.3l-0.1-0.3l-0.2-0.4l0-0.1l0.3,0.1l0.1-0.1l0.3-0.4l0.5-0.7l0.2,0l0.1,0.1
		l0.1,0.2l0.1,0.1l0.3,0.3L25.1,437L25.1,437z M21.8,439.6l0,0.1l-0.4,0l-0.1-0.4l0.2,0l0-0.1l0.1,0l0.1,0.3L21.8,439.6L21.8,439.6z
		 M26.3,449.9l-0.3,0.5L26,450l0.4-0.6l0.1,0L26.3,449.9L26.3,449.9z"/>
	<path id="MU" class="st0" d="M47.9,460.5l-0.4,0.1l-0.4,0l-0.2-0.2l0-0.1l0.1-0.1l0-0.2l0.1-0.3l0.1-0.1l0.2-0.1l0.1-0.3l0.2-0.2
		l0.2,0l0.2,0.3l0.2,0.3l0,0.3l-0.2,0.1l-0.1,0.2L47.9,460.5z"/>
	<path id="RE" class="st0" d="M42.7,463.1l-0.4,0.1l-0.3,0l-0.5-0.3l-0.1-0.2l-0.2-0.5l0-0.2l0.2-0.3l0.4-0.1l0.4,0l0.2,0.1l0.2,0.3
		l0.3,0.4l0,0.4L42.7,463.1z"/>
	<path id="SC" class="st0" d="M42,415l0,0.3l-0.1-0.1l0-0.2l-0.2-0.1l-0.1-0.1l0.2-0.1L42,415z"/>
	<path id="YT" class="st0" d="M12.9,438.5l-0.2,0l-0.1-0.1l-0.1-0.2l0.1-0.2l0-0.1l-0.1-0.2l0.1-0.1l0.1,0.2l0.1,0l0.2,0.1l-0.1,0.2
		l0,0.1l-0.1,0.2L12.9,438.5z"/>
	<g>
		<polygon class="st0" points="-1.3,356.4 -1.4,356.2 -1.4,356.2 -1.5,356.1 -1.5,356.2 -1.6,356.3 -1.6,356.3 		"/>
		<polygon class="st0" points="-1.4,357.3 -1.4,357.4 -1.6,357.4 -1.8,357.3 -1.7,357.5 -1.4,357.6 -1.1,357.6 -0.8,357.6 
			-0.5,357.6 -0.5,357.5 -0.9,357.3 -1,357.4 -1,357.4 -1.1,357.4 -1.2,357.3 -1.2,357.3 -1.2,357 -1.3,356.9 -1.5,356.8 
			-1.7,356.7 -1.6,356.9 -1.7,357 -1.8,357 -1.8,357.1 -1.6,357.2 		"/>
		<polygon class="st0" points="-128.9,293.1 -128.9,293 -128.9,293 -128.8,292.9 -128.9,292.9 -128.9,293 -128.9,293 -128.9,293 
			-128.9,293.1 		"/>
		<polygon class="st0" points="-89.3,392.6 -89.2,392.3 -88.8,391.7 -88.8,391.4 -88.9,391.3 -89.3,391.3 -89.4,391.3 -89.4,391.3 
			-89.5,391.4 -89.6,391.5 -89.7,391.8 -89.8,392.1 -89.9,392.1 -90.1,392.2 -90.2,392.2 -90.2,392.5 -90.2,392.6 -90.1,392.7 
			-89.6,392.8 -89.5,392.8 		"/>
		<polygon class="st0" points="-158.5,370.4 -158.6,370.3 -158.6,370.3 -158.7,370.5 -158.6,370.6 -158.7,370.7 -158.5,370.7 
			-158.5,370.6 -158.5,370.6 -158.5,370.4 		"/>
		<polygon class="st0" points="-158,370 -158.1,370.1 -158.2,370.3 -158.1,370.3 -158,370.3 -158,370.2 -157.9,370.2 -157.8,370.1 
			-157.8,370 -157.9,370 		"/>
		<polygon class="st0" points="-158.5,369.5 -158.5,369.1 -158.7,369.1 -158.8,369.3 -158.8,369.5 -158.8,369.5 -158.6,369.6 		"/>
		<polygon class="st0" points="-159,370.3 -159.1,370.3 -159.2,370.3 -159.3,370.4 -159.3,370.4 -159.4,370.5 -159.4,370.6 
			-159.3,370.7 -159.1,370.7 -159.1,370.7 -159,370.6 -158.9,370.5 -159,370.3 		"/>
		<polygon class="st0" points="-158.7,368.3 -158.8,368.3 -159.2,368.3 -159.2,368.4 -159.1,368.6 -158.9,368.6 -158.7,368.3 		"/>
		<polygon class="st0" points="-157.7,369.3 -157.6,369.4 -157.5,369.3 -157.5,369.3 -157.5,369.2 -157.3,369.2 -157.3,369 
			-157.5,369.1 		"/>
		<polygon class="st0" points="6,450.4 6.1,450.4 6.1,450.4 6.1,450.4 6.1,450.4 6.1,450.4 		"/>
		<polygon class="st0" points="1.4,407.5 1.1,407.8 1.1,407.9 1.2,407.9 1.2,407.9 1.5,407.7 1.6,407.7 1.6,407.6 1.6,407.6 		"/>
		<polygon class="st0" points="10.9,435.9 10.9,435.9 10.8,436 10.7,436.1 10.7,436.2 10.5,436.2 10.4,436.2 10.2,436.2 10.7,436.4 
			10.9,436.7 11,436.7 11.1,436.6 11.1,436.3 10.9,435.9 		"/>
		<polygon class="st0" points="7.9,434.6 7.9,434 7.8,433.9 7.6,433.9 7.6,434 7.5,434.1 7.4,435 7.7,435.3 7.8,435.3 8.1,435.5 
			8.1,435.4 8.1,435.4 8.2,435.3 8.1,435 		"/>
		<polygon class="st0" points="9,436.6 8.8,436.4 8.6,436.4 8.6,436.5 8.7,436.7 9.2,436.8 9,436.6 		"/>
		<polygon class="st0" points="-159.7,345 -159.9,345.1 -160,345.2 -160.1,345.5 -160.1,345.7 -160,345.8 -159.8,345.5 
			-159.8,345.5 		"/>
		<polygon class="st0" points="-93.6,389.1 -93.8,389.5 -93.7,389.5 -93.4,389.4 -93.4,389.4 -93.3,389.2 -93.5,389.2 		"/>
		<polygon class="st0" points="-154.2,424 -154.2,424 -154.3,424.1 -154.3,424.2 -154.3,424.2 -154.3,424.3 -154.2,424.3 
			-154.2,424.3 -154.1,424.2 -154,424.1 -154.1,424.1 		"/>
		<polygon class="st0" points="-129.9,447 -130.1,447.1 -130.1,447.3 -129.9,447.3 -129.8,447.2 -129.8,447 		"/>
		<polygon class="st0" points="-149.1,380.5 -149.3,380.4 -150,380.4 -150.2,380.6 -149.3,380.8 -149.1,381 -149,380.9 -149,380.7 
			-149,380.5 		"/>
		<path class="st0" d="M30.3,372.3l-0.2-0.1l-0.3-0.2l0,0.1l0,0.1l-0.4,0.1l-0.1,0l0.1-0.1l0.1,0l0-0.1l0.1-0.2l0-0.2l-0.1-1.2
			l-0.1-0.7l0.1-0.5l0.2-0.4l0-0.3l0.1-0.2l-0.2,0l-1.1-0.4l-0.4,0.1l-0.3,0.3l-0.2,0.3l-1,0.6l-1.3,0.2l-0.7,0.3l-0.9,0.2l-0.3,0
			l-0.1,0l-0.6-0.2l-0.3,0l-0.4,0.1l-1.2,0.4l-0.9,0.1l-0.7-0.2l-0.2,0l-0.5,0.2L18,371l-1.1,0.5l-0.3,0l-0.6-0.1l-0.6,0l-0.6-0.1
			l-0.3,0.1l-1,0.4l-1.1,0.6l-1.6,0l-0.3-0.1l-0.3-0.2l-0.9-0.7l-0.6-0.7L8,369.8l-0.5-0.4l-0.2,0.4l-0.3,0.5l-0.4,0.6l0,0l-0.2,0
			l-0.2,0l-0.1-0.1l-0.2-0.1l-0.3,0l-0.3,0.1l-0.4,0.1l-0.4,0l-0.1,0l0,0l0.1,0l0.4,0l0.4-0.1l0.3-0.1l0.3,0l0.2,0.1l0.1,0.1l0.2,0
			l0.2,0l0.4-0.6l0.3-0.5l0.2-0.4l-0.2-0.2l-0.3-0.1l-0.4,0l-0.3,0.1l-0.4,0.1l-0.2,0l-0.1,0l-0.1-0.2l0.3,0l0.4-0.5l0.7-0.3
			l0.6-0.4l0.2-0.2l0.1-0.2l0.1-0.3l-0.2-0.5l-0.2-0.3l-0.5-0.6l0-0.1v0L7,365.6l-0.2-0.2l-0.1,0.3l-0.5-0.2L6.1,365l-0.6-0.6
			l-0.3,0L5,363.9l-0.3-0.5L3,362.3l-0.5-0.8l-0.9-1.1l-1.1-0.4l-0.5-0.4l-0.2-0.1l-0.3-0.1l-0.4,0l-0.3-0.1l-0.3-0.4l-0.1-0.2
			l0-0.3l-0.2-0.2l-0.3-0.2l-0.1,0.2l-0.1,0.3l0.1,0.2l0,0.1l-0.1,0.2l-0.2-0.3l-0.3-0.7l-0.1-0.2l-0.2,0l-0.2-0.7l-0.3-0.4
			l-0.2-0.8l-0.2-1.6l-0.3-1l-0.3-1l-0.8-1.7l0,0l-0.1-0.2l-0.7-0.4l-0.1-0.2l-0.1,0.1l-0.1,0l-0.2-0.2l-0.2-0.2l-0.4-0.4l-0.5-0.4
			l-0.4-0.1l-0.2-0.1l-0.2-0.2l-0.3-0.8l-0.3-1.5l0-0.6l-0.2-1l0-0.8l0.1-0.5l-0.2-0.5l0-0.5l0-0.3l0-0.4l0.2,0.1l0.1,0.1l0-0.1
			l0-0.1l-0.1-0.2l-0.4-0.4l-0.4-0.8l-0.1-0.5l0-0.7l-0.9,0h-0.9h-0.9h-0.9H-15l-0.9,0h-0.9h-0.9h-0.6v0h0.6h0.9h0.9l0.9,0h0.9h0.9
			h0.9h0.9l0.9,0l0-0.1l-0.1-0.2l-1.2-0.9l-0.5-0.7l-0.9-0.3l-0.2-0.1l-0.1-0.2l-0.3-0.3l-0.4-1l-0.1-0.5l-0.1-1l0-0.2l0.1-0.2
			l0.1-0.1l0.1,0l0.4,0l-0.4-0.4l-0.4-0.3l-0.2-0.4l-0.6-0.6l-1-2.1l-0.5-0.9l-0.3-0.8l-0.7-1l-0.8-1.6l-0.3-0.3l-0.2-1.3l-0.1-0.4
			l-0.1-0.3l-0.3-0.2l-0.1-0.3l-0.3-0.6l0-0.3l0-0.6l-0.1-0.2l-0.3-0.2l-0.5-0.5l-0.5-0.7l-0.3-0.4l-0.1-0.2l-0.1-0.2l-0.1-0.3
			l-0.4-0.5l-0.1-0.2l0-0.6l-0.1-0.4l-0.1-0.2l-0.5-0.5l-0.1-0.3l0.1-0.4l0.2-0.3l0-0.2l0.3-0.2l0.2,0.6l0.2,0.9l0.1,0.2l0.1,0.2
			l0.2,0.4l0.6,0.7l0.2,0.3l0.2,0.6l0,0.3l0.1,0.4l0.5,0.6l0.5,0.4l0.5,0.7l0.8,0.7l0.5,0.2l0.3-0.4l0.2-0.4l0.1-0.3l0.1-0.8
			l0.5-1.3l0.3-1.6l0.3-0.5l0.2-0.1L-16,315l-0.2-0.8l-0.2-0.6l-0.2-0.7l-0.4-0.8l0-0.2l-0.1-0.3l-0.2-0.8l-0.2-0.5l-0.2-0.7
			l-0.1-0.3l0-0.1l-0.1,0.1l-0.8,0.4l-0.7,0.2l-0.8,0l-0.5,0.2l-0.1-0.1l-0.1-0.1l-0.6,0.2l-0.1,0l-0.5,0.1l-0.2,0l-0.2-0.1
			l-0.6-0.5l-0.2-0.1l-0.1,0l0.1,0.2l0.1,0.1l-0.2,0.3l-0.3,0.1l-0.1-0.2l-0.2-0.2l-0.3-0.1l-0.4-0.2l0.3-0.4l0-0.2l0.5,0.5l0.2,0
			l-0.5-0.5l-0.2-0.1l-0.1,0l-0.7,0.2l-0.2,0l-0.9-0.4l-0.3-0.1l-0.1,0l-0.1,0.3l-0.1,0.1l-0.5,0.1l-0.4,0.1l-0.4,0l0.9-0.3l0.1-0.1
			l-1,0.3l-0.5,0.1l-0.1,0.2l-0.1,0.1l-0.1,0.1l-0.1,0.2l-0.3,0l-0.2,0l-0.3,0.1l-0.9,0.7l-0.5,0.3l-0.4,0.2l-0.3,0.1l-0.2,0
			l-0.3-0.1l-0.5-0.3l-0.8-0.4l-1.5-0.2l-0.4-0.3l-0.6,0l-0.2-0.1l-0.8-0.5l-1.3-0.3l-0.9-0.1l-1.6-0.4l-1.4,0.4l-0.4-0.1l-0.2-0.4
			l0,0l-0.1-0.2l-0.3-0.6l-0.2-0.2l-0.2-0.1l-0.5-0.1l-0.6,0.1l-1,0l-0.3-0.1l-0.4-0.3l-0.3-0.1l-1.4-0.2l-0.5-0.4l0-0.2l0.1-0.2
			l-0.1-0.6l-0.5-0.2l-0.5-0.2l-0.6-0.2l-0.5-0.3l-0.4-0.1l-1,0l-0.3-0.1l-0.2,0l-0.6,0.5l-0.3,0.1l-0.7,0l-1.2,0.7l-0.7,0.5
			l-0.7,0.7l-0.3,0.4l-0.2,0.4l-0.1,0.6l0.1,0.9l0.2,0.5l0.2,0.4l0.1,0.3l0,0.4l-0.1,0.4l-0.3,0.5l-0.8,1l-0.3,0.2l-0.8,0.4
			l-0.5,0.1l-0.5-0.1l-0.7-0.4l-1.3-1.2l-0.7-0.2l-0.3-0.2l-1.4-0.5l-1.6-0.4l-0.9,0l-0.9-0.1l-0.8-0.3l-0.4-0.2l-0.3-0.3l-0.3-0.4
			l-0.2-0.6l-0.1-0.5l0-0.6L-71,306l-0.3-0.3l-1.9-0.4l-0.3-0.1l-0.5-0.4l-0.2-0.1l-0.9-0.3l-0.5,0l-0.3-0.1l-0.7-0.3l-0.4,0.1
			l-1.1,0.3l-0.9-0.1l-0.4-0.1l-1.3-0.8l-0.4-0.1l-0.4-0.2v0l0,0l-0.3-0.1l-0.2,0.1l-0.3-0.1l-0.1-0.1l0.1-0.1l0.1-0.1l0-0.1
			l-0.3-0.2l-0.2-0.7l-0.4-0.2l-0.2,0.3l-0.2,0.1l-0.3,0l-0.1-0.3l0-0.3l-0.7,0.1l-0.4-0.2l-0.4-0.4l-0.3-0.7l0-0.3l0.1-0.2l0.1-0.2
			l0.2-0.2l0.9-0.7l0.4-0.5l0.5-0.7l0.3-0.5l0.5-0.7l-0.2-0.3l0-0.4L-83,295l0-0.3l-0.6-0.5l-0.3-0.1l-0.3-0.3l-0.2-0.5l-0.1-0.5
			l0-0.3l0.1-0.2l0.3-0.3l0.4-0.3l0.5-0.9l0.3-0.3l0.2-0.1l-0.1-0.3l-0.1-0.4l-0.3,0l-0.5,0.5l-0.5,0.2l-0.1,0.3l-0.3,0.2l-0.3-0.2
			l0.1-0.3l-0.4-0.6l0-0.6l-0.3-0.2l-0.3,0l-0.3,0l0,0.1l0,0.1l-0.2,0.2l-0.1-0.3l0.1-0.2l0.1-0.2l-0.2-0.1l-0.2,0l-1.5,0.5
			l-0.2,0.1l-0.7,0.6l-0.7,0.2l0,0l-1.3,0.1l-0.6,0.2l-0.3-0.1l-0.5-0.4l-0.5-0.2l-0.6-0.1l0.1,0.4l-0.3,0.1l-0.6,0.1l-1-0.3
			l-0.3-0.3l-0.4,0.1l-0.2,0.4l-0.5,0.3l-1,0.2l-0.8,0.4l-0.4,0.1l-0.3-0.1l-0.6-0.5l-0.3-0.2l-0.3-0.1h-2.7l-0.7,0.4l-1.5,0
			l-0.4,0.2l-0.7,0.5l-0.7,0l-1,0.1l-2,0.2l-0.8,0.3l-0.5,0.3l-0.8,0.3l-0.6,0.3l-0.5,0.3l-0.3,0.6l-0.3,0.2l-0.4,0l-0.5-0.2l-0.2,0
			l-1.4,0.7l-0.5,0.3l-0.3,0.3l-0.4,0.5l-0.4,0.2l-0.5,0.4l-0.7,0.3l-0.3,0l-0.6-0.1l0.1,0.3l0.2,0.2l0.6,0.5l0.4,0.3l0,0.1l0-0.1
			l-0.4-0.3l-0.6-0.5l-0.2-0.2l-0.1-0.3l-0.6-0.1l-0.6,0l-0.3-0.1l-0.3,0l-0.1-0.2l-0.2-0.4l-0.1-0.1l0-0.2l0-0.2l-0.3,0.3l-0.4,0.3
			l-0.5,0.1l-0.5-0.1l-0.3-0.2l-0.3,0.1l-0.5,0l-1,0.3l-0.8-0.2l-0.6-0.3l-0.8-0.6l-0.4-0.5l-0.2-0.5V294l0.2-0.2l-0.3-0.1l-0.4,0.2
			l-0.3,0.1l-0.4,0l-0.5,0.1l-0.1,0.4l-1.1,3.1l-1.1,2.2l-0.4,0.6l-0.7,0.5l-1.2,0.6l-2.1,0.9l-0.6,0.4l-0.2,0.2l-0.7,0.9l-1.2,1.2
			l0,0.3l-0.1,0.8l-0.2,0.5l-0.9,1.2l-0.4,0.9l-0.1,1.2l0,0.7l-0.1,0.4l0.1,0.2l0.2,0.1l0.3,0.5l0.1,0.3l-0.1,0.8l-0.2,0.5l-0.3,0.5
			l-0.4,0.5l-0.5,0.8l-0.8,1l-0.5,0.4l-1.1,0.7l-0.6,0.6l-0.4,0.5l-0.3,0.2l-1.2,0.6l-1.4,0.4l-0.9,0.1l-0.4,0.2l-0.3,0.5l-0.4,0.4
			l0,0l5.4,0l0,0l-5.4,0l-0.2,0.7l-0.4,0.9l-0.2,0.9l-0.2,0.4l-0.3,0.3l-0.7,0.5l-0.6,0.2l-0.4,0.4l-0.3,0.1l-0.2,0.3l-0.1,0.7
			l-0.2,0.4l-0.3,0.8l-0.2,0.4l-0.1,0.6l0,1.1l-0.1,0.5l-0.4,0.5l-0.4,0.2l-1.1,1.2l-0.5,0.4l-0.3,0.3l-0.1,0.3l-0.1,0.2l0.2-0.2
			l0.2-0.2l0.2-0.1l0,0.2l0,0.1l-0.4,0.6l-0.2,0.4l-0.3,0.6l-0.3,0.4l0.1,0.2l-0.1,0.3l-0.3,0.3l-0.2,0.7l-0.4,0.8l-0.5,0.2
			l-0.3,0.3l-0.4,0.8l-0.2,1.4l0,0.1l-0.3,1.6l0.1,0.2l0-0.3l0.1-0.3l0.1-0.4l0.1-0.6h0l-0.1,0.6l-0.1,0.4l-0.1,0.3l0,0.3l0.1-0.7
			l0.1-0.1l0.1-0.1l0.1,0.1l0.4,0.8l0.3,0.5l0.2,0.1l0.1-0.1l0-0.2l0.1,0.1l0.1,0.1l0.3,0.7l0.3,0.6l-0.1,0.3l0,0.4l-0.1,0.6
			l-0.5,0.9l0.4-0.1l-0.2,0.3l-0.3,0.1l-0.1,0.1l0.1,0.2l0.5,0.4l0.3,0.4l0.2,0.8l0.2,0.6l0.1,0.9l0,1l-0.1,1l-0.4,1l-0.4,0.8
			l-0.3,1l0,0.4l-0.2,0.5l0,1.3l0,0l-0.1,0.3l-0.8,1.3l-0.9,1.1l-0.7,0.4l-0.3,0.1l0.3,0.3l0.1-0.2l0.2,0l0.2,0.1l0.3,0.2l0.2,0.5
			l0.3,0.2l0.3,0.6l0.2,0.3l0,0.3l0.1,0l0.2-0.1l0.1,0l-0.1,0.1l-0.3,0.1l-0.1,0.2l0.1,0.2l0.3,0.2l0.2,0.2l0.1,0.3h0l0.1,0.4
			l0.3,0.3l0.2,0l0.6-0.3l0.8,0l0.8-0.1l0.4,0l0,0l-0.1,0l-0.4,0l-0.5,0.1l-0.5,0l-0.5,0.1l-0.1,0.2l0,0.1l-0.2,0l-0.4,0.1l-0.4-0.1
			l-0.1-0.2l0-0.2l-0.2-0.1l-0.2,0.1l-0.2,0.2l0.2,0.6l0,0.2l0,0l0,0.2l0,0.3l0,0.5l-0.1,0.1l0,0.1l0.1,0.1l0.1-0.1l0.1-0.1l0.1-0.2
			l0.1-0.1l0.1,0.1l0.3,0.1l0,0l0,0.1l-0.1,0l-0.2-0.1l-0.3,0.1l-0.2,0.1l-0.1,0.2l0.1,0.2l0.1,0.1l0,0l0.8,0.4l0.3-0.1l0.2,0l0,0.1
			l-0.2,0.2l0,0.3l0.2,0.2l0.4,0.2l0.5-0.1l0.1,0.1l0,0.1l-0.1,0.4l0.3,0.1l0.5-0.2l0.4-0.3l0.2-0.1l0.7,0l0.2-0.1l0.1,0l0,0.1
			l-0.1,0.1l-0.1,0l-0.2,0.1l-0.6,0l-0.1,0.1l-0.1,0.2l0,0.2l0.3,0.3l0.1,0l0.1-0.1l0.2-0.1l0.3,0.1l0.1,0.2l-0.3,0l-0.2,0l-0.5,0.2
			l-0.1,0.3l0.1,0.1l0.1,0l0.1,0l0,0.1l-0.1,0.1l0,0.2l0,0.1l0.2,0.2l0.2,0l0.1,0l0,0.4l0.1,0l0.2-0.3l0.1,0l-0.1,0.4l0.1,0.2l0,0
			l0,0.3l0.1,0.1l0.1,0l0.1-0.4l0.1-0.1l0.1,0l0.2,0.1l0.1,0.2l0.2,0.3l0,0.1l0.2-0.2l0,0.1l-0.1,0.3l0,0.2l0.5,0.9l0.7,0.3l0.2,0
			l0.1,0l0,0.1l0,0.2l0.2,0.2l0.4,0.2l0.2,0l0.1-0.1l0.1,0l0,0.2l0.1,0.2l0,0.4l-0.1,0.3l0.3,0l0.4,0.4l0.1,0.2l0,0.1l0.3,0.3
			l0.1,0.1l-0.1,0.3l0,0.1l0,0l0.1,0.2l0.3,0.3l0.3,0l0,0.1l-0.4,0l-0.1,0.2l0,0.2l0.1,0.3l0.2,0l0.1-0.1l0.4,0l0.1-0.1l0,0.1
			l-0.1,0.1l-0.2,0.2l-0.3,0.3l-0.2,0l-0.1-0.1l-0.2,0l0,0.2l0.2,0.3l0.1,0.3l0.4,0l0.2,0.2l0.1,0.3l0.1,0.6l0.1,0.1l0.2,0.1
			l0.2,0.2l0.4,0l0.2-0.1h0.1l-0.1,0.2l0.2,0.3l-0.1,0.3l0,0.2l0.4,0.1l1.2,0.4l0.5,0.3l0.5,0.4l0.1,0.1l0.1-0.1l0,0l-0.1,0.1
			l0.6,0.6l0.8,0.4l0.4,0.3l0.2,0.4l0.2,0.1l0.3,0.1l0.5,0.1l0.4,0.3l1.7,1.6l0.8,0.8l0.7,0.5l2.5,1.3l0.7,0.2l1,0.4l0.3,0l-0.1-0.1
			v0l0.1,0.1l0.3-0.1l0.5-0.3l0.5-0.2l0.4-0.3l0.2-0.1l0.8-0.3l1.4-0.5l0.4-0.2l1-0.2l1.4-0.1l-0.1-0.1l-0.5,0l-0.3,0l0.1-0.1
			l0.1-0.1l0.7,0l0.2,0.2l0.2,0l0.7-0.1l1.8-0.2l-0.1-0.1l-0.1,0l-1.4,0.1l0.2-0.1l0.5-0.1l0.7,0l0.4,0l0.3,0.2l1.5,0.3l0.1-0.1
			l0.2-0.5l0.1-0.1l0.1,0l0,0.4l0.3,0.1l0.1,0l0,0.1l0.2,0l0.2-0.1l0.2,0l0.1-0.1l0-0.2l0-0.2l0.1-0.1l0-0.2l0,0l0,0.2l-0.1,0.1
			l0,0.2l0,0.2l-0.1,0.1l-0.2,0l-0.2,0.1l-0.2,0l-0.2,0l0,0l-0.4-0.1l-0.1,0.1l0.4,0.1l0,0l0.1,0l0.3,0.1l0.7,0.1l0.9,0.2l0.4,0.2
			l0.5,0.3l0.2,0l0.6-0.3l0.4-0.3l0.4-0.2l1.2-0.4l0.7-0.1l0.4-0.3l0.5-0.2l0.4-0.3l0.6-0.2l1.1-0.5l1.2,0l0.2,0l0.6-0.1l0.2-0.3
			l0.1-0.2l0.2-0.2l0.2-0.1v0l0.3-0.2l0.9-0.2l0-0.1h0l0,0.1l0.5-0.1l1.3-0.2l1.2-0.1l0-0.2l0.1-0.5l0.1-0.2l0.1-0.1l-0.1-0.2
			l-0.1-0.2l0-0.4l0.1-0.1l0-0.1l0-0.2v-0.6l0,0v0.6l0,0.2l0,0.1l-0.1,0.1l0,0.4l0.1,0.2l0.1,0.2l-0.1,0.1l-0.1,0.2l-0.1,0.5l0,0.2
			l0.2,0l1.6-0.1l0.3-0.4l0.2,0l0.6-0.2l0.1,0l-0.6,0.3l-0.2,0.1l-0.1,0.1l0.1,0.1l1.8,0l0.9,0.2l0.6,0.4l0.6,0.5l0.5,0.6l0.1,0.1
			l0,0.1l0,0.2l0.2,0.1l0.3-0.1l0.1-0.1l0.1,0l0,0.2l0.1,0.1l0.2,0l0.1,0l-0.2,0.1l-0.3,0l-0.2,0l0,0.1l0.1,0.1l0.4,0.2l0.5-0.2
			l0,0.1l-0.1,0.1l-0.2,0l-0.2,0.1l0,0.2l0,0.2l0.1,0.1l0.2,0.1l-0.1,0.1l-0.1,0l-0.1,0l0.2,0.5l0.1,0.3l0.2,0.3l0.1,0.2l0.6,0.5
			l0.3,0.2l0.2,0.1l0.3,0.1l0.3,0l0.1,0l0-0.3l0.2-0.1l0,0.2l-0.1,0.1l0,0.1l0.1,0l0.5-0.1l0.1,0l0.2,0l0.1-0.4l0.1,0.1l0,0.2l0,0.1
			l0.2,0l0.1,0l0.3-0.1l-0.2-0.3l0-0.3l0-0.2l-0.1-0.2h0.1l0.1,0.2l0,0.3l0.1,0.2l0.2,0.1l0.3,0l0.4-0.3l0-0.3l-0.2-0.2l0-0.1
			l0.2,0.1l0.2,0.2l0.2,0.2l0.5,0l0.1-0.1l0-0.1l0,0l0.1,0.3l0.2,0.1l0.4,0l0.6-0.1l0.7,0l0.1-0.3l-0.3-0.7l0.1,0l0.3,0.3l0.1,0
			l0.1,0.2l0.2,0.1l0.1-0.1l0,0l0,0l0,0l-0.1,0.4l0,0.1l0.1,0.1l0.2,0l0.1-0.1l-0.1-0.3l0.1,0.1l0.2,0.2l0.1,0l0.1,0l0.1,0l0.1,0.1
			l0,0.3l0,0.2l0.1,0.2l0.1,0.2l0.1,0.4l0.3,0.1l0.4,0.1l0.1,0.1l0,0.1l0.1,0l0.2,0l0.1-0.1l0.1-0.2l0-0.2l0.1,0l0.1,0.1l0.1,0
			l0.2-0.1l0.1,0.1l-0.1,0.1l0,0.1l0.3,0.2l0,0.1l-0.3,0l-0.1,0.2l-0.1,0l0.2,0.3l0.1,0.2l0.3,0l-0.3,0.2l0.6,0.6l0.1,0.2l0.1,0.5
			l-0.2,0.5l0,0.5l-0.1,0.5l-0.1,0.7l0.1,0l0,0.1l0,0.1l0.1,0.1l0.3,0.1h0.9h0.5h0.8l0,0h-0.8H-85h-0.9l-0.3-0.1l-0.1-0.1l0-0.1
			l0-0.1l-0.1,0l-0.1,0.7l0.1,0.4l-0.2,0.4l-0.2,0.5l0,0.1l-0.1,0.1l-0.3,0.3l-0.2,0.4l-0.1,0.4l0.2,0.1l0.2,0l0.3,0.2l0,0.1l0,0
			l0,0.1l0.1,0.6l0,0.4l0,0.2l0,0l-0.1-0.1l0-0.2l-0.1,0l-0.5,0.2l0,0.2l0.2,0.2l0.2,0.4l0.2,0.2l0.6,0.3l0.5-0.1l0.2,0.1l-0.5,0.2
			l0,0.2l-0.2-0.1l-0.5-0.2l-0.3,0l-0.2-0.1l-0.1-0.1l0-0.2l-0.1-0.1l-0.1,0.2l0.1,0.5l0,0.5l-0.1,0.8l-0.5,0.6l-0.2,0.1l-0.1,0
			l-0.1,0l-0.1,0.2l-0.4,0.1l-0.2-0.3l-0.2-0.1l0.4,0.9l0.1,0.1l0.1,0.2l0.1,0.1l0.3,0.6l0.4,0.2l0.2,0l0.1,0l0.1-0.1l0.1,0
			l-0.2,0.4l0,0.1l0.1,0.1l0.2,0l0.1-0.1l0.1,0.1l0.1,0.1l-0.3,0.1l-0.1,0l-0.1,0l-0.8-0.9l0,0.2l0.3,0.4l0.3,0.6l0,0.1l0,0.1l0.2,0
			l0.4,0.2l0,0.1l0,0.1l-0.4-0.2l-0.1,0l0.2,0.2l0.1,0.1l0.4,0.4l0.1,0.2l0,0.2l0.1,0.2l0.1,0.1l0.3,0l0.3,0.1l0.3,0.1l0.3,0.2
			l-0.1,0.1l-0.1,0l-0.7-0.3l-0.1,0l0.1,0.1l0.7,0.6l1,0.7l0.7,0.7l0.2,0.3l0.6,0.5l0.3,0.3l0.2,0.5l0.3,0.3l0,0l0.7,0.6l0.1,0.2
			l0.8,0.7l0.3,0.4l0,0.3l0.1,0.1l0.1,0.1l0.2,0.3l0.2,0.2l0.1,0.1l0,0.1l0,0l0.1,0.1l0.2,0.5l0.2,0.4l0.1,0.4l-0.1,0.2l-0.1,0.3
			l0.1,0.3l0,0.1l0,0l0.1,0.1l0.2,0.2l0.3,0.3l0.1,0l0.2,0l0.5-0.1l0.3-0.2l0.2-0.1l0.4-0.1l0.2,0.1l0.3,0l0,0l-0.3,0l-0.2,0.1
			l-0.6,0.3l-0.7,0.1l-0.5,0.1l-0.2,0l-0.1,0.1l0.1,0.2l0.2,0.5l0.3,0.7l0.8,1l0.1,0.8l0.6,1.5l0.8,1.7l0,0.3l0,0.2l0,0.2l-0.1,0.2
			l-0.9,0.9l0-0.1l0.1-0.1l0-0.1l-0.1,0.1l-0.1,0.2v0.2l0.2,0.5l0.2,0.5l0.1,0.5l0,0.4l0.2,0.4l0.1,0.5l0.5,0.7l0.1,0.5l0.3,0.3
			l0.2,0.3l0,0.4l0.3,0.5l0,0.4l-0.2,1.2l0,0.9l-0.3,0.9l-0.2,0.5l-0.5,0.7l-0.7,0.4l-0.5,0.4l-0.2,0.7l-1,1.2l-0.1,0.9l-0.3,0.8
			l-0.3,1.7l-0.6,1.8l-0.2,0.8l-0.1,0.4l-0.2,0.3l-0.1,0.1l-0.3,0.2l0.1,0.2l0.1,0.2l0.1,1.5l0,0.6l-0.1,0.5l-0.1,1.1l0,0l-0.1,0.6
			l0,0.8l0.1,0.7l0.5,0.8l0.3,0.6l0.2,0.2l0.7,0.6l0.4,0.5l1.6,3.3l0.4,0.5l0.3,1l0.5,1.2l1.1,1.7l0.1,0.4l0.2,0.5l1,1.3l0.4,0.8
			l0.2,0.8l0,0.3l-0.1,0.4l-0.1,0l-0.1-0.1l-0.1,0.3l0.1,0.3l0.1,0.6l0,0.6l0.1,0.5l0,1.2l0.1,0.5l0.4,1.1l0.4,0.7l0.2,0.8l-0.1,0.7
			l0,0.3l0.1,0.5l-0.1,0.6l0.2,0.7l0.1,1.1l0.4,0.3l0.1,0.3l0.1,0.3l-0.1,0.2l0,0.4l0.2,0.7l0.2,0.9l0.2,0.4l1.1,1.8l0.5,0.6
			l0.3,0.3l0.9,1l0.3,0.3l0.1-0.1l0.4-0.3l0.2-0.1l0,0l-0.2,0.1l-0.4,0.3l-0.1,0.1l0.1,0.1l0.7,1.2l0.6,1.3l0.7,2.3l0.4,1.1l0.9,1.9
			l0.7,1.2l0.6,0.9l0.1,0.3l0.3,1.3l0.1,0.5l0,0.8l-0.2,0.5l-0.4,0.3l-0.2,0.1l-0.2-0.2l-0.2,0.1l-0.1,0.3l0.1,0.4l0.2,0.3l0.1,0.4
			l0.2,0.2l0.2,0.5l0.3,0.2l0.1,0.3l0.3,0.7l0.1,0.3l0,0.3l-0.3,0.2l-0.1,0.5l0.1,0.4l0.2,0.4l0.1,0.2l0-0.6l0.1-0.2l0.1-0.1l0.2,0
			l0.3,0l0.1,0l0.2,0.1l0,0.3l0,0.2l0,0.1l0,0.2l0.2,0l0.1-0.1l0.4,0l0.1,0.2l0.3,0l0.1,0.1l0.1,0.2l0,0.3l-0.1,0.2l0.3,0l0.7,0.5
			l0.6,0l0.2,0.1l0.3,0l1.2-0.9l0.3-0.2l0.7-0.1l0.3-0.2l0.3-0.1l0.2,0l0.5,0.1l0.3,0l0.6-0.1l0.7,0l1.3-1l0.5-0.1l0.4-0.1l0.5,0
			l0.5,0.2l1,0.1l0.2,0l0.7-0.3l0.3,0l1.4,0.2l1.2,0.4l0.6,0l0.2-0.4l0.3-0.3l0.5,0l0.9,0.2l0.3,0l0.2-0.1l0-0.5l0.4-0.4l0.5-0.1
			l1.2,0.2l0.5-0.2l1.3-0.6l0.8-0.5l1.1-0.9l0.3-0.1l1-1l0.7-0.5l1.1-1.1l0.8-1l1-1.1l0.7-0.7l0.3-0.2l0.4-0.3l0.9-1.2l0.5-0.8
			l0.5-0.9l0.6-1.2l0.4-0.6l0.4-1l0.5-0.7l1.2-1.4l0.3-0.1l0.2-0.1l0.2-0.1l0.7-0.7l0.3-0.4l0.4-1l0.3-1.9l0.1-0.5l0.4-1.1l0.1-0.7
			l0,0l0-0.1l0.1-1.8l0.1-0.5l-0.1,0l-0.1,0.1l-0.1,0.4l-0.1-0.1l-0.1-0.1l-0.2-0.1l-0.2-0.2l-0.2-0.3l0.2-0.3l0.2-0.3l0.2-0.5
			l0.5-0.5l1.1-0.7l0.5-0.2l0.9-0.4l2.2-0.8l1.1-0.5l0.5-0.3l0.3-0.3l0.5-0.8l0.1-0.3l0.1-0.7l-0.1-0.1l-0.1,0l-0.1,0.2l-0.2,0
			l-0.1-0.1l0-0.3l0.3-1.6l0.2-0.7l-0.2-0.6l0-0.3l0.1-0.9l0-0.2l0-0.2l-0.1-0.2l0-0.2l-0.1,0l-0.1,0.2l0,0.4l0,0.3l-0.1,0.2
			l-0.2-0.2l0-0.4l0-0.7l-0.2-0.8l0-0.3l-0.4-0.8l0-0.6l-0.4-1.2l-0.3-0.4l-0.3-0.3l-0.2-0.3l0-0.2l0.1-0.9l0-0.5l0-0.3l-0.1-0.2
			l-0.2-0.2l0.2,0l0.4,0.3l0.1,0l0.2,0l1.2-0.9l0.8-1l0.6-0.5l0.4-0.2l0.4-0.2l0.2,0.1l0.1,0l0.1-0.4l0.2,0.2l0.2-0.1l0-0.2l0.2-0.3
			l0.1-0.2l0.6-0.6l0.4-0.5l0.1-0.1l0.1-0.3l0.2-0.2l0.1-0.1l0.5-0.5l0.8-0.5l0.9-0.5l0.6-0.2L-7,451l0.2-0.1l0.7-0.2l0.7-0.3
			l0.1-0.1l0.1,0l0.1,0l0.4,0l0.2-0.1l0.4-0.1l0.3-0.4l0.2-0.1l1.1-0.6l0.4-0.3l0.2-0.1l-0.2-0.4L-2,448l0.3-0.1l0.3-0.5l0-0.1v-0.1
			l0.3-0.3l0.3-0.3l0.7-0.8l0.3-0.6l0-0.2l-0.1-0.2l0.1-0.1l0.1,0l0-0.2l0-0.2l0.2-0.3l0.2-0.1l0-0.2l-0.1-0.2l0-0.2l0-0.1l0-0.2
			l-0.1-0.1l-0.1,0L0.2,443l0-0.3l0-0.2l0.2-0.3l0-0.2l-0.2,0l-0.1-0.1l0-0.1l0-0.8L0,440.4l0-0.3l0-0.2l0.1-0.3l-0.1-0.2l0-0.2
			l0-0.3l0-0.2l0-0.2l-0.4,0l0-0.1l0-0.1l0.3-0.2l0.1-0.2l0-0.4l-0.1-0.3l-0.2-0.1l0.1-0.3l0-0.2l0-0.6l0.1-0.3l-0.1-0.2l0-0.3
			l-0.2-0.5l0.1-0.6l-0.2-0.3l0.1-0.2l0.2-0.2l0.1-0.3l0-0.1l-0.1-0.1l0-0.2l0.2-0.3l-0.3-0.2l0.2-0.1l0.2-0.2l-0.3-0.3l-0.1-0.3
			l-0.3,0.2l-0.5,0.4l-0.5,0.4l0,0l0.5-0.4l0.5-0.4l0.3-0.2l0-0.1l0-0.1l-0.1-0.2l-0.5-0.3l-0.2-0.1l-0.2-0.1l-0.3,0l-0.1-0.2
			l-0.2-0.2l-0.4-0.1l0.2-0.2l0-0.2l-0.1-0.3l-0.1-0.4l-0.2-0.5l0-0.6l-0.5-0.7l0.1-0.1l0-0.1l-0.3-0.4l-0.2-0.8l0-0.3l0.1-0.3
			l0.3-0.7l0-0.6l-0.3-0.2l-0.1,0.1l0-0.8l0.2-0.5l0.2-0.4l0.2-0.2l0.1-0.3l-0.2-0.4l-0.5-0.2l-0.2-0.4l-0.3-0.4l-0.2-0.2l-0.2-0.1
			l-0.3-0.3l0-0.1l3.5-8.5l0,0l0-0.1l0.7-1.8l0.1,0l0.7,0l0.5-0.4l0-0.2l0.2-0.2L1,408l0-0.2l0-0.3l0.1,0.1l0.1,0l0.1-0.2l0.1-0.1
			l0.2,0.1l0.1,0l0.5-0.1l0.3-0.2l0.4-0.5l0,0l0.3-0.3l0.3-0.4l0.3-0.6l0.1-0.1l0.1-0.3l0.2-0.2l0.4-0.3l0.3-0.3l0.5-0.6l0.2-0.1
			l0.3-0.4l0.2-0.2l0.2-0.2l2.1-2.2l0.7-0.7l0.9-0.7l0.8-0.8l1.6-1.2l2.5-1.4l0.6-0.5l2.3-2.3l1.8-1.9l1.3-1.5l0.7-1.3l1.2-1.5
			l1.1-1.9l0.1-0.7l0.4-1l0.3-0.6l0.6-0.9l0.3-0.5l0.3-0.5l0.3-0.9l0.7-0.7l0.5-0.9l0.1-0.3l0.3-0.6l0.6-0.7l0.1-0.4l0.4-0.5l0-0.8
			l0.1-0.6l0.1-0.9l0.1-0.2l0.3-0.1l0.5-0.1l0.2,0.1l0.3,0l0-0.1L30.3,372.3z M6.8,366.1L7,366L6.8,366.1l-0.3,0.1h0L6.8,366.1z
			 M6.1,366.7l0.2-0.4l0.1-0.2l0,0l-0.1,0.2L6.1,366.7L6,366.9l0,0L6.1,366.7z M5.1,366.5L5.1,366.5L5.1,366.5L5.1,366.5L5.1,366.5z
			 M-157.7,354.9l-0.4,0.1l-0.5,0l-0.3-0.1l-0.1-0.1l-0.2,0l-0.2,0l0,0l0.2,0l0.2,0l0.1,0.1l0.3,0.1l0.5,0L-157.7,354.9
			L-157.7,354.9z M-80.5,450.9L-80.5,450.9l0.3-0.2h0L-80.5,450.9z M-78,450.5L-78,450.5l0.1-0.1L-78,450.5z M-3.2,433L-3.2,433
			l-0.3,0.2l0,0L-3.2,433z M6.2,372.6L6,372.3l-0.2-0.2l0-0.1l0,0l0,0l0,0.1l0.2,0.2L6.2,372.6l0.1,0.3l0,0l0,0L6.2,372.6z
			 M3.3,369.6L3.3,369.6L3.3,369.6L3.3,369.6L3.3,369.6z M2.5,363.8l-0.3-0.2l0,0L2.5,363.8z M0.5,361.8L0.5,361.8l-0.7-0.2l0,0
			L0.5,361.8z M-0.6,361.2l0.2,0.1L-0.6,361.2l-0.1-0.1L-0.6,361.2z M-3.7,360.8l0.5-0.1l0.2-0.1l0.2,0.1l0.3,0h0.2l0.4,0.2l0.5-0.1
			l0.2,0L-1,361l0,0l-0.2-0.1l-0.2,0l-0.5,0.1l-0.4-0.2h-0.2l-0.3,0l-0.2-0.1l-0.2,0.1L-3.7,360.8l-0.2,0l0,0L-3.7,360.8z
			 M-4.4,360.5l0.1-0.1h0L-4.4,360.5l-0.3,0.2l0,0L-4.4,360.5z M-37.1,490.6L-37.1,490.6l-0.1-0.2l0,0L-37.1,490.6z M-152.4,366
			L-152.4,366L-152.4,366L-152.4,366z M-156,354.5L-156,354.5L-156,354.5l-0.2,0l0,0L-156,354.5L-156,354.5z M-155.9,354.4
			L-155.9,354.4l0.2,0.1l0.4,0l0.7,0l0.2,0.1l0,0l-0.3-0.1l-0.7,0l-0.4,0L-155.9,354.4L-155.9,354.4L-155.9,354.4z M-81.7,304.1
			l0-0.2l0.1-0.6l0-0.1l0,0.1l-0.1,0.6L-81.7,304.1l0,0.3L-81.7,304.1z M-81.7,304.9l0.2,0.4l0,0.2l0-0.2L-81.7,304.9L-81.7,304.9z
			 M-118.7,299.7l0,0.6L-118.7,299.7l-0.1-0.2L-118.7,299.7z M-156.6,340.6l0.6,0l0.6,0l0,0l-0.6,0L-156.6,340.6l-0.3,0
			L-156.6,340.6z M-157.4,354.8L-157.4,354.8l0.4-0.1l0.5,0l0.2-0.1l0,0l-0.3,0.1l-0.5,0L-157.4,354.8z M-153,367.3L-153,367.3
			L-153,367.3l0.1-0.1L-153,367.3z M-152.7,364.1l-0.5,0.1l-0.7,0.2l-0.5-0.1l-0.7-0.2l-0.4-0.2l-0.2-0.1l-0.2-0.1l-0.2-0.1
			l-0.2-0.1l-0.2,0l-0.1,0.1l-0.1,0.1l-0.1,0.2l-0.1,0.1l-0.5,0.1l-0.5,0.1l-0.3,0.1l-0.2,0l-0.1,0.5l-0.6,0l-0.5,0l-0.6,0l-0.6,0
			l-0.2,0.1l-0.2,0.2l0.2-0.2l0.2-0.1l0.6,0l0.6,0l0.5,0l0.6,0l0.1-0.5l0.2,0l0.3-0.1l0.5-0.1l0.5-0.1l0.1-0.1l0.1-0.2l0.1-0.1
			l0.1-0.1l0.2,0l0.2,0.1l0.2,0.1l0.2,0.1l0.2,0.1l0.4,0.2l0.7,0.2l0.5,0.1l0.7-0.2L-152.7,364.1l0.1-0.2l-0.1-0.2l0.1,0.2
			L-152.7,364.1z M-152.3,367.1L-152.3,367.1l-0.1,0.1L-152.3,367.1L-152.3,367.1L-152.3,367.1L-152.3,367.1z M-152.3,366.6
			l-0.2-0.3v0L-152.3,366.6L-152.3,366.6z M-150.4,376.1L-150.4,376.1l0.1-0.3l0,0L-150.4,376.1z M-149.5,375.1L-149.5,375.1
			l0.1-0.2l0,0L-149.5,375.1z M-149.2,374.7L-149.2,374.7L-149.2,374.7l0-0.1L-149.2,374.7z M-145.2,381.3l-0.3,0.2l-0.2,0.3
			l0.2-0.3L-145.2,381.3l0.1-0.1L-145.2,381.3z M-144.8,380.9l-0.2,0.1L-144.8,380.9l0.3-0.2L-144.8,380.9z M-143.9,380.1
			L-143.9,380.1L-143.9,380.1L-143.9,380.1L-143.9,380.1z M-136.3,384.2l-0.2,0l-0.2,0l-0.2,0l-0.2-0.1l-0.2-0.1l-0.2-0.2l-0.1-0.1
			l-0.1,0l-0.1,0l-0.1-0.1l0,0l0,0l0,0l0.1,0.1l0.1,0l0.1,0l0.1,0.1l0.2,0.2l0.2,0.1l0.2,0.1l0.2,0l0.2,0L-136.3,384.2l0.3,0.1l0,0
			L-136.3,384.2z M-135.9,384.8L-135.9,384.8l0.1,0.1l0,0L-135.9,384.8z M-134.8,385.4L-134.8,385.4l-0.1,0l-0.3-0.2l-0.3,0
			l-0.2-0.2l0,0l0.2,0.2l0.3,0l0.3,0.2L-134.8,385.4L-134.8,385.4L-134.8,385.4L-134.8,385.4L-134.8,385.4z M-123,383.2L-123,383.2
			l0.1-0.1l0,0L-123,383.2z M-122.4,381.9l-0.4,0.5l-0.2,0.4l0,0l0.2-0.4L-122.4,381.9L-122.4,381.9z M-112.4,382.6L-112.4,382.6
			L-112.4,382.6L-112.4,382.6z M-112.1,381.5l-0.1,0.4l0,0.2l0,0.1l-0.1,0.1l0,0.1v0l0-0.1l0.1-0.1l0-0.1l0-0.2L-112.1,381.5l0-0.1
			L-112.1,381.5z M-111.9,383.5L-111.9,383.5L-111.9,383.5L-111.9,383.5z M-108.9,384.2l-0.1-0.4l-0.3-0.4l-0.1-0.1l-0.1-0.2l0,0
			l0.1,0.2l0.1,0.1l0.3,0.4L-108.9,384.2L-108.9,384.2z M-109.6,382.2L-109.6,382.2l0.1,0.3v0L-109.6,382.2z M-109.4,382.6l0,0.2
			l0,0.1l0,0l0-0.1L-109.4,382.6z M-78.8,417.9l-0.3,0l-0.2,0l0.2,0L-78.8,417.9L-78.8,417.9L-78.8,417.9z M-78.7,417.1l0,0.8l0,0
			L-78.7,417.1l0-0.8l-0.1-0.1l-0.1-0.1l0-0.1l0.1-0.1l-0.1,0.1l0,0.1l0.1,0.1l0.1,0.1L-78.7,417.1z M-76.3,418.3L-76.3,418.3
			l-0.2,0.1l0,0L-76.3,418.3L-76.3,418.3l0.7,0l0,0H-76.3z M-66.4,483.9l-0.2,0.2l-0.1,0.3l-0.1,0.1l0,0.2l0,0.2l-0.1,0.2l-0.1,0.1
			l0,0l0.1-0.1l0.1-0.2l0-0.2l0-0.2l0.1-0.1l0.1-0.3L-66.4,483.9l0.1,0L-66.4,483.9z M-34.9,491.8L-35,492l-0.1,0.2l-0.1,0l-0.3-0.1
			L-36,492l-0.2-0.2l-0.2-0.2l-0.1-0.2l-0.1-0.1l0-0.1l-0.2-0.1l-0.1,0l-0.1,0l-0.1-0.1l0-0.1l0,0l0,0.1l0.1,0.1l0.1,0l0.1,0
			l0.2,0.1l0,0.1l0.1,0.1l0.1,0.2l0.2,0.2l0.2,0.2l0.4,0.1l0.3,0.1l0.1,0l0.1-0.2L-34.9,491.8L-34.9,491.8z M-32.2,489.8l-0.2,0.2
			l-0.1,0.1l-0.2,0.1l-0.5,0.2l0,0l-0.3,0.1l0,0l-0.2,0l-0.2,0l-0.2,0l-0.1,0l-0.2,0.2l-0.4,0.6l-0.1,0.1l0,0.1l0-0.1l0.1-0.1
			l0.4-0.6l0.2-0.2l0.1,0l0.2,0l0.2,0l0.2,0l0,0l0.3-0.1l0.5-0.2l0.2-0.1l0.1-0.1L-32.2,489.8L-32.2,489.8z M-31.8,488.9l-0.2,0.1
			l-0.1,0.2l0,0l0.1-0.2L-31.8,488.9l0.1-0.1L-31.8,488.9z M-24.4,477.3l-0.6-0.4l-0.5-0.3l0,0l0.5,0.3L-24.4,477.3l0.1,0l0.1,0l0,0
			l-0.1,0L-24.4,477.3z M-24.2,480.4l-0.1,0.7l0,0.4l0,0l0-0.4L-24.2,480.4l0.1-0.4l0,0L-24.2,480.4z M-24.2,477.3L-24.2,477.3
			L-24.2,477.3l0.2,0.1L-24.2,477.3z M2.4,405.9l-0.5-0.6l-0.4-0.5l-0.2-0.3l0,0l0.2,0.3l0.4,0.5L2.4,405.9l0.3,0.3l0,0L2.4,405.9z"
			/>
		<polygon class="st0" points="-95.1,400.7 -95.3,400.7 -95.6,400.9 -95.7,401.1 -95.7,401.2 -95.6,401.5 -95.6,401.7 -95.5,401.7 
			-95.2,401.5 -94.9,401.2 -94.9,400.9 		"/>
		<polygon class="st0" points="-93,397.1 -93.1,397.1 -93.1,397.1 -93.3,397.3 -93.3,397.5 -93.1,397.5 -93,397.4 -93,397.4 
			-93,397.3 -93,397.2 		"/>
		<polygon class="st0" points="-82.2,297.6 -82.3,297.6 -82.6,297.8 -82.7,298 -82.2,297.8 		"/>
		<polygon class="st0" points="-83.2,300.7 -83.7,300.7 -83.8,300.8 -83.8,301.2 -83.7,301.3 -83.6,301.3 -83.4,301.4 -83.3,301.4 
			-83.2,301.3 -83.1,301.3 -83,301.2 -82.9,301.1 -82.9,301 -83,300.9 		"/>
		<polygon class="st0" points="-3.7,419.5 -3.5,419.5 -3.4,419.7 -3.2,419.7 -3.2,419.9 -3.1,420 -3,420 -2.8,419.9 -2.8,419.8 
			-3,419.2 -3,419.2 -3.1,419.1 -3.2,419 -3.4,418.5 -3.4,418.1 -3.6,417.9 -3.7,418.3 -3.9,418.5 -3.8,418.9 -3.9,419.2 		"/>
		<polygon class="st0" points="-2.5,417 -2.4,417.1 -2.3,417.1 -2.2,417 -2,416.6 -2,416.3 -2,415.9 -2,415.7 -2,415.6 -2.2,415.7 
			-2.5,415.7 -2.5,416.2 -2.6,416.9 		"/>
		<polygon class="st0" points="-2.6,424.3 -2.6,424.3 -2.4,424.3 -2.4,424.3 -2.3,424.1 -2.1,424 -1.9,423.6 -1.9,423.3 -1.9,423.4 
			-2,423.6 -2.4,423.9 -2.6,424 -2.7,424.1 		"/>
	</g>
</g>
<g id="Layer_2">
	<path class="st1" d="M-79,460.2c3.5,6,4.5,4.8,9.5,1.8c2.8-1.6,6.1,0.4,8.1,4.3c2.2,4.3,6.3,15.4,11,16.7c5.7,1.6,9.1,0,12,3.1
		c3.6,3.8,4.2,9.6,0,12.8c-2.9,2.3,0.1,6.4,2.3,4.8s6.7-5.9,10.6-9.2c6.7-5.7-1.2-16.3-5.9-21.9c-4.4-5.3,1.1-8.4,3.4-9.8
		c2.3-1.3,8.6-4.9,5.3-9.6s2.6-7.8,5.8-9.1c0,0,4.4-1.5,3.5-5c-0.9-3.5,1.2-11.9-3.9-14.3c-5.1-2.4-7.9-8.3-3.2-11.5
		s5.9-2.4,9.1,0.3s3.8,12.1,6.6,13.1s5,1.4,5.6-0.4s6.3-16.2,6-18.3c-0.4-3.1-6.1-8.1-8.8-10.9c-2.4-2.5-8.3-10.8-17.1-10.7
		s-10.2,3-12.5,6.1s-7.6,19.2,2,26.4s4,11.5,1.5,11.7s-16.6,10.7-16.6,10.7s-3.2,2.4-1.7,4.6s6.8,10.1,3.3,12.8s-17.6-1.1-22-2.9
		s-5.3-4.6-12.8-4.7S-79,460.2-79,460.2z"/>
	<path class="st1" d="M-160.8,352.2c3.4,0.2,4.3,3.2,6.9,5.3c3.1,2.5,10.7,5.2,18.5,5.2s14.5-6,29.1-7c23.7-1.7,27.1,4.8,27.1,11.2
		s-6.3,19.6-6.3,19.6s-5.3,9.9-14.8,6.4s-5-15-2.9-20.9s-4.5-8-7.4,0s-2.6,17.7-7.7,19.6s-17.2,4.2-19.8-0.2
		c-2.6-4.5,5.1-17.5,3.4-20.8s-20.5,7.1-26.1,2C-166.2,367.6-174.3,351.4-160.8,352.2z"/>
</g>
</svg>
