<?xml version="1.0" encoding="utf-8"?>
<!-- Generator: Adobe Illustrator 19.0.0, SVG Export Plug-In . SVG Version: 6.00 Build 0)  -->
<svg version="1.1" id="Layer_1" xmlns="http://www.w3.org/2000/svg" xmlns:xlink="http://www.w3.org/1999/xlink" x="0px" y="0px"
	 viewBox="-270 281.4 69.4 231.6" style="enable-background:new -270 281.4 69.4 231.6;" xml:space="preserve">
<style type="text/css">
	.st0{fill:#FFFFFF;}
</style>
<path class="st0" d="M-205.7,303.6l-17.2-17.2c-3.3-3.3-7.7-5.1-12.4-5.1c-4.7,0-9.1,1.8-12.4,5.1l-17.2,17.2
	c-3.3,3.3-5.1,7.7-5.1,12.4l0.2,21.2c-0.1,0.3-0.1,0.7-0.1,1v155.1V508v5h4.1c0.3,0.1,0.6,0.1,1,0.1s0.7,0,1-0.1h4.1v-5v-14.7V359.5
	c0.1-0.3,0.1-0.6,0.1-1v-28.9c5.9,2.3,12.5,3.7,19.3,4.2v3.4c-0.1,0.3-0.1,0.7-0.1,1v155.1V508v5h4.1c0.3,0.1,0.6,0.1,1,0.1
	s0.7,0,1-0.1h4.1v-5v-14.7V359.4c0.1-0.3,0.1-0.6,0.1-1v-24.6c6.8-0.5,13.4-1.9,19.3-4.2v8.6v20.3v134.8V508v5h4.1
	c0.3,0.1,0.6,0.1,1,0.1s0.7,0,1-0.1h4.1v-5v-14.7V358.5v-20.3V316C-200.6,311.3-202.4,306.9-205.7,303.6z M-210.9,318.3
	c-6.9,3.5-15.5,5.4-24.4,5.4c-8.9,0-17.5-1.9-24.4-5.4l0-2.3c0-1.9,0.7-3.7,2.1-5.1l17.2-17.2c1.3-1.3,3.2-2.1,5.1-2.1
	c1.9,0,3.7,0.7,5.1,2.1l17.2,17.2c1.3,1.3,2.1,3.2,2.1,5.1V318.3z"/>
</svg>
